<svg width="57" height="64" viewBox="0 0 57 64" fill="none" xmlns="http://www.w3.org/2000/svg">
<g clip-path="url(#clip0_1310_9055)">
<path d="M56.9537 18.2319C56.8375 17.9391 55.3856 16.8656 52.0557 14.6211C50.8167 13.7819 50.1004 13.3134 48.0096 11.9863L47.0997 11.4007L47.0417 7.77046L47.0029 4.1402L46.4996 3.88647C46.2092 3.73033 45.4735 3.61323 44.6798 3.63274C42.5696 3.67178 42.6277 3.59371 42.7051 5.68209C42.8213 8.84393 43.3246 8.94152 36.5488 4.55007C33.2964 2.46169 30.2957 0.568488 29.8892 0.353795C28.9212 -0.114627 27.9145 -0.114627 27.0627 0.334277C26.6949 0.529453 20.7322 4.39393 13.8208 8.922C6.92888 13.4501 1.21785 17.1584 1.14041 17.1584C0.811301 17.1584 0.133721 18.1343 0.0369237 18.7588C-0.0598735 19.3249 0.0175643 19.5591 0.462831 20.0665C0.927458 20.574 1.17913 20.6911 1.83735 20.7106C2.59237 20.7106 3.5797 20.1056 15.0986 12.5718C21.9518 8.08275 27.779 4.31586 28.05 4.21827C28.5147 4.02309 28.7857 4.15972 30.6636 5.38932C31.8251 6.15051 37.1683 9.60511 42.5503 13.0597C47.9322 16.5338 52.8301 19.6957 53.4496 20.1056C54.7273 20.9643 55.4243 21.0619 56.1599 20.4569C56.702 20.0275 57.1473 18.7784 56.9537 18.2319ZM55.3662 20.3788C54.9209 20.4764 54.5531 20.3202 53.469 19.6176C52.7333 19.1297 49.8488 17.256 47.061 15.4604C40.1303 10.9909 32.0187 5.74064 30.3151 4.62814C29.5407 4.12068 28.6695 3.71081 28.3985 3.71081C28.0694 3.6913 26.5787 4.55007 24.0426 6.20906C21.9325 7.59481 18.6607 9.72222 16.8022 10.9323C12.911 13.4696 9.56177 15.6751 5.61244 18.2709C2.76661 20.1446 2.36006 20.3007 1.15977 19.8713C0.52091 19.6567 0.288596 19.1102 0.540269 18.4466C0.617707 18.1928 1.64376 17.4121 2.90212 16.5924C4.10241 15.8117 6.92889 13.977 9.17458 12.5132C13.8208 9.44897 13.8596 9.42945 19.7061 5.62353C24.1781 2.71542 26.7723 1.03691 27.508 0.62704C28.0888 0.295242 28.9019 0.314759 29.6375 0.685593C29.986 0.880768 32.4446 2.42265 35.0969 4.1402C41.6404 8.37551 42.7051 9.00007 42.8794 8.70731C42.9568 8.5902 43.0536 7.49722 43.0923 6.30665L43.1698 4.12068L44.1184 4.00358C45.1831 3.86695 46.6157 4.15972 46.6157 4.53055C46.6351 4.66717 46.6157 6.30665 46.6157 8.18033L46.5964 11.5959L47.3901 12.0838C47.816 12.3571 48.7066 12.9231 49.3648 13.3525C50.023 13.7819 50.9523 14.3869 51.4556 14.7187C51.959 15.031 53.2948 15.9678 54.4176 16.7681C56.2567 18.0757 56.4891 18.2904 56.4891 18.8174C56.4891 19.5981 56.0438 20.2227 55.3662 20.3788Z" fill="#444EAD"/>
<path d="M54.4183 16.7667C53.2954 15.9664 51.9596 15.0296 51.4563 14.7173C50.953 14.3855 50.0237 13.7805 49.3655 13.3511C48.7073 12.9217 47.8167 12.3557 47.3908 12.0825L46.5971 11.5945L46.6164 8.17894C46.6164 6.30526 46.6358 4.66578 46.6164 4.52916C46.6164 4.15833 45.1838 3.86556 44.1191 4.00219L43.1705 4.11929L43.093 6.30526C43.0543 7.49583 42.9575 8.58881 42.8801 8.70591C42.7058 8.99868 41.6411 8.37412 35.0976 4.13881C32.4453 2.42126 29.9867 0.879377 29.6382 0.684201C28.9025 0.313368 28.0894 0.29385 27.5087 0.625649C26.773 1.03552 24.1788 2.71403 19.7068 5.62214C13.8603 9.42806 13.8215 9.44758 9.17527 12.5118C6.92958 13.9757 4.1031 15.8103 2.90282 16.591C1.64445 17.4107 0.618402 18.1914 0.540964 18.4452C0.289291 19.1088 0.521605 19.6553 1.16047 19.87C2.36075 20.2993 2.7673 20.1432 5.61314 18.2695C9.56246 15.6737 12.9116 13.4682 16.8029 10.9309C18.6614 9.72083 21.9331 7.59341 24.0433 6.20767C26.5794 4.54868 28.0701 3.6899 28.3992 3.70942C28.6702 3.70942 29.5414 4.11929 30.3158 4.62675C32.0194 5.73925 40.131 10.9895 47.0617 15.459C49.8495 17.2546 52.734 19.1283 53.4697 19.6162C54.5538 20.3189 54.9216 20.475 55.3669 20.3774C56.0445 20.2213 56.4898 19.5967 56.4898 18.816C56.4898 18.289 56.2574 18.0743 54.4183 16.7667ZM44.1578 10.4625C43.3834 9.93552 42.7445 9.40855 42.7445 9.27192C42.7445 9.1353 42.8026 9.1353 42.8994 9.25241C42.9769 9.34999 43.6738 9.87697 44.4482 10.4235C45.2419 10.9504 45.9195 11.4774 45.9776 11.575C46.1131 11.7897 45.9582 11.6921 44.1578 10.4625Z" fill="#444EAD"/>
<path d="M44.1574 10.4636C43.383 9.93661 42.7441 9.40964 42.7441 9.27302C42.7441 9.13639 42.8022 9.13639 42.899 9.2535C42.9765 9.35109 43.6734 9.87806 44.4478 10.4246C45.2415 10.9515 45.9191 11.4785 45.9772 11.5761C46.1127 11.7908 45.9578 11.6932 44.1574 10.4636Z" fill="#444EAD"/>
<path d="M24.8357 17.5692C24.1387 17.4911 23.5192 17.4716 23.4611 17.5301C23.4031 17.5887 21.8737 17.6277 20.0345 17.6472H16.7047L15.9884 18.1937C15.0011 18.9744 14.2654 20.3211 14.2267 21.5312C14.188 22.4095 14.246 22.5266 14.7107 22.7608C15.427 23.1122 16.5305 24.4784 16.666 25.142C16.8402 26.0008 17.3435 26.3911 18.0405 26.2545C18.3696 26.1764 20.6734 26.0788 23.1514 26.0203L27.6621 25.9227L27.7396 23.444C27.8557 20.6139 27.9525 19.599 28.1268 19.3062C28.4946 18.7207 26.7716 17.8034 24.8357 17.5692ZM27.7008 19.9503C27.6621 20.5163 27.546 21.5508 27.4298 22.2729C27.333 22.9951 27.2556 24.0295 27.2556 24.5565V25.5519L25.1841 25.5909C24.0226 25.6104 22.8416 25.6494 22.5125 25.669C22.2028 25.6885 20.8863 25.7275 19.628 25.7665L17.3242 25.8446L17.0532 25.0834C16.7047 24.0685 16.0077 23.1512 15.1366 22.6047C14.4784 22.1948 14.4396 22.1363 14.5558 21.4336C14.7881 19.9893 15.7561 18.5841 16.8015 18.1547C17.0725 18.0571 19.1827 17.979 21.6413 17.9986C25.8036 18.0376 26.0359 18.0571 26.8878 18.4865L27.7783 18.9549L27.7008 19.9503Z" fill="#D29916"/>
<path d="M27.7794 18.9516L27.702 19.947C27.6633 20.513 27.5471 21.5474 27.431 22.2695C27.3342 22.9917 27.2567 24.0261 27.2567 24.5531V25.5485L25.1853 25.5875C24.0237 25.607 22.8428 25.6461 22.5137 25.6656C22.2039 25.6851 20.8875 25.7241 19.6291 25.7632L17.3253 25.8413L17.0543 25.0801C16.7058 24.0652 16.0089 23.1478 15.1377 22.6013C14.4795 22.1915 14.4408 22.1329 14.5569 21.4303C14.7892 19.986 15.7572 18.5807 16.8026 18.1513C17.0737 18.0538 19.1838 17.9757 21.6425 17.9952C25.8048 18.0342 26.0371 18.0538 26.8889 18.4831L27.7794 18.9516Z" fill="#D29916"/>
<path d="M41.2922 18.6595C40.4404 17.8203 39.8984 17.7422 34.5164 17.7422C30.8575 17.7617 30.3735 17.8007 29.6185 18.1521C28.8054 18.5424 28.786 18.5619 28.9409 19.2646C29.0184 19.6549 29.0764 21.1968 29.0377 22.6996C29.0184 24.183 29.0377 25.5492 29.0958 25.7249C29.1732 25.9981 29.4636 26.0176 31.264 25.9591C34.6519 25.8225 36.7815 25.881 37.7107 26.1347C39.4724 26.6227 39.5886 26.6032 39.7241 25.7053C39.8984 24.6124 41.0212 23.2657 41.8924 23.09L42.5506 22.9729V21.8409C42.5506 20.4551 42.1828 19.5378 41.2922 18.6595ZM41.602 22.7777C40.7502 23.0705 39.4918 24.5538 39.3563 25.3931C39.2789 25.8029 39.1627 26.1347 39.0853 26.1347C39.0078 26.1347 38.4658 25.9981 37.885 25.8225C36.8783 25.5102 35.7554 25.4711 31.3415 25.5297C30.3348 25.5492 29.5023 25.5297 29.4636 25.4907C29.4443 25.4711 29.3862 23.9488 29.3668 22.1336L29.3281 18.8157L29.9863 18.4643C30.5865 18.1325 31.0898 18.113 35.3876 18.1911C38.3883 18.2301 40.3049 18.3472 40.5566 18.4839C40.7695 18.601 41.2342 19.1279 41.5633 19.6159C42.0473 20.3575 42.1634 20.7479 42.1634 21.5676C42.1634 22.5045 42.1247 22.6021 41.602 22.7777Z" fill="#D29916"/>
<path d="M42.1634 21.567C42.1634 22.5038 42.1247 22.6014 41.602 22.7771C40.7502 23.0698 39.4918 24.5532 39.3563 25.3924C39.2789 25.8023 39.1627 26.1341 39.0853 26.1341C39.0078 26.1341 38.4658 25.9975 37.885 25.8218C36.8783 25.5095 35.7555 25.4705 31.3415 25.5291C30.3348 25.5486 29.5024 25.5291 29.4636 25.49C29.4443 25.4705 29.3862 23.9481 29.3668 22.133L29.3281 18.815L29.9863 18.4637C30.5865 18.1319 31.0898 18.1124 35.3876 18.1905C38.3883 18.2295 40.3049 18.3466 40.5566 18.4832C40.7696 18.6003 41.2342 19.1273 41.5633 19.6152C42.0473 20.3569 42.1634 20.7473 42.1634 21.567Z" fill="#D29916"/>
<path d="M50.5648 20.436C50.1776 20.0847 49.5194 19.6553 49.1128 19.4601C48.6869 19.2845 48.2997 18.9917 48.2417 18.8161C47.9706 18.1134 47.6415 18.5623 47.5254 19.7724C47.3898 21.2753 47.5447 22.4268 47.9125 22.5634C48.4159 22.7586 49.1322 24.3005 49.2483 25.4715C49.4226 27.1696 49.0547 28.6724 48.1836 29.7849L47.4673 30.7218L47.6028 32.2832C47.6802 33.1419 47.7577 36.3819 47.7577 39.4851L47.777 45.1257L38.0586 45.0086C32.696 44.9305 24.0424 44.872 18.7959 44.872H9.29046L9.21302 37.9823C9.1743 32.615 9.21302 31.0731 9.38726 30.956C9.75508 30.7218 9.69701 30.2338 9.29046 30.2338C8.39992 30.2338 7.72234 28.6529 7.70298 26.5255C7.70298 24.886 8.20633 23.1294 8.86455 22.583C9.1743 22.3292 9.25174 22.0365 9.25174 21.0215C9.25174 19.5382 9.05814 18.3281 8.84519 18.3281C8.76775 18.3281 8.43864 18.6404 8.14825 19.0308C7.85786 19.4016 7.19964 19.9286 6.71565 20.1823C5.55409 20.7873 5.30241 21.0996 5.45729 21.8803C5.51537 22.2316 5.57344 27.7941 5.5928 34.2349C5.61216 47.3117 5.61216 47.2336 6.92861 48.1314L7.56747 48.5803L28.5337 48.5218L49.5 48.4827L50.197 47.7996C50.5648 47.4288 50.9713 46.8237 51.0681 46.4334C51.1843 46.0235 51.2617 40.9099 51.2617 33.3957V21.0411L50.5648 20.436ZM50.8358 33.7665L50.7777 46.1406L50.3325 46.8823C50.0808 47.2727 49.6743 47.7216 49.4613 47.8582C48.8805 48.19 7.81914 48.1314 7.19964 47.7801C6.96732 47.663 6.63821 47.2531 6.44462 46.8628C6.11551 46.1992 6.07679 45.3209 6.03807 35.406C5.99935 29.4922 5.96063 23.9492 5.94127 23.0514C5.92191 22.0169 5.97999 21.3533 6.13487 21.1972C6.5995 20.7288 8.38056 19.5382 8.57416 19.5968C8.69032 19.6163 8.76775 20.1628 8.76775 20.8069C8.76775 21.6461 8.67096 22.1145 8.43864 22.3683C7.78042 23.0904 7.31579 24.7884 7.31579 26.4279C7.31579 28.3211 7.54811 29.2384 8.22569 30.0582C8.67096 30.5656 8.74839 30.8779 8.76775 31.8733C8.76775 32.5174 8.78711 35.6987 8.82583 38.9191C8.84519 42.1395 8.94199 44.8915 9.01943 45.0281C9.15494 45.2233 13.0462 45.3014 28.3401 45.3794C44.9893 45.477 47.5254 45.4575 47.8545 45.2233C48.2029 44.9501 48.2223 44.6378 48.2029 40.1683C48.1836 37.5529 48.1255 34.3911 48.0481 33.1224C47.9319 30.9169 47.9319 30.8389 48.4159 30.1948C49.5581 28.6334 49.9453 27.072 49.6162 25.1397C49.4226 23.8711 49.0741 23.149 48.3191 22.3878C47.99 22.056 47.9125 21.7437 47.9125 20.8264C47.9319 20.1823 47.9706 19.6163 48.0287 19.5772C48.1836 19.4016 49.9646 20.397 50.4486 20.9044L50.8939 21.3924L50.8358 33.7665Z" fill="#444EAD"/>
<path d="M50.8937 21.3943L50.8356 33.7684L50.7776 46.1425L50.3323 46.8842C50.0806 47.2745 49.6741 47.7234 49.4611 47.86C48.8803 48.1918 7.81896 48.1333 7.19946 47.782C6.96714 47.6649 6.63803 47.255 6.44444 46.8647C6.11533 46.2011 6.07661 45.3228 6.03789 35.4079C5.99917 29.494 5.96045 23.951 5.94109 23.0532C5.92173 22.0188 5.97981 21.3552 6.13469 21.1991C6.59931 20.7307 8.38038 19.5401 8.57398 19.5986C8.69013 19.6182 8.76757 20.1646 8.76757 20.8087C8.76757 21.648 8.67077 22.1164 8.43846 22.3701C7.78024 23.0923 7.31561 24.7903 7.31561 26.4298C7.31561 28.323 7.54793 29.2403 8.22551 30.06C8.67077 30.5675 8.74821 30.8798 8.76757 31.8752C8.76757 32.5193 8.78693 35.7006 8.82565 38.921C8.84501 42.1414 8.94181 44.8934 9.01924 45.03C9.15476 45.2252 13.046 45.3032 28.34 45.3813C44.9891 45.4789 47.5252 45.4594 47.8543 45.2252C48.2027 44.9519 48.2221 44.6397 48.2028 40.1701C48.1834 37.5548 48.1253 34.3929 48.0479 33.1243C47.9317 30.9188 47.9317 30.8407 48.4157 30.1967C49.5579 28.6353 49.9451 27.0739 49.616 25.1416C49.4224 23.873 49.0739 23.1508 48.3189 22.3896C47.9898 22.0578 47.9124 21.7456 47.9124 20.8282C47.9317 20.1842 47.9704 19.6182 48.0285 19.5791C48.1834 19.4035 49.9645 20.3989 50.4484 20.9063L50.8937 21.3943Z" fill="#444EAD"/>
<path d="M46.8471 24.378C46.247 23.7535 45.9373 23.6169 45.0274 23.4998C43.2076 23.2655 42.5493 23.6364 41.291 25.5101C40.7489 26.3298 40.7489 26.3493 40.8651 28.5353C40.9232 29.7259 40.9038 31.1116 40.8264 31.5605C40.5166 33.1805 41.4071 33.0634 28.688 33.0829C22.4736 33.1024 17.324 33.0243 17.2659 32.9463C17.2078 32.8487 17.0142 32.7706 16.84 32.7706C16.1044 32.7706 15.9301 32.0484 16.0076 29.0037C16.0463 27.2471 15.9882 26.1346 15.872 26.1346C15.7752 26.1346 15.5042 25.7052 15.2719 25.1588C14.9621 24.4366 14.6718 24.1048 14.1297 23.812C13.336 23.4217 11.5355 23.1875 10.7999 23.3827C10.0642 23.5778 9.40599 24.9441 9.28983 26.525C9.21239 27.7546 9.23175 27.8522 9.7351 28.2425C10.0255 28.4767 10.5482 28.7109 10.8967 28.789C11.4968 28.8866 11.5355 28.9647 11.6517 29.9015C11.7291 30.4675 11.7678 32.0875 11.7485 33.5123C11.7098 36.0691 11.7098 36.1276 12.2131 36.6156L12.6971 37.123L28.3589 37.2206C43.7109 37.3182 44.0013 37.2987 44.4659 36.9278C44.9306 36.557 44.9306 36.4594 44.8918 34.1759C44.8725 32.8682 44.9112 31.1897 44.9886 30.4285C45.1048 29.1794 45.1629 29.0623 45.5501 29.0623C46.6342 29.0623 47.5828 27.6375 47.5828 26.0175C47.5828 25.2368 47.486 25.0221 46.8471 24.378ZM45.5307 28.6719L44.737 29.0232L44.6208 30.6432C44.5434 31.541 44.4853 33.2195 44.4853 34.371C44.4853 36.2642 44.4466 36.4789 44.0981 36.6741C43.8271 36.8107 38.9872 36.8498 28.3008 36.7912C14.0523 36.7131 12.8713 36.6741 12.5229 36.3618C12.1937 36.0691 12.155 35.7177 12.1357 33.1805C12.1357 29.4331 12.0195 28.8476 11.2839 28.5158C9.69638 27.8327 9.7351 27.8717 9.75445 26.5055C9.77381 25.1002 10.1804 24.0658 10.8579 23.7925C11.3613 23.5778 12.9875 23.7535 13.8199 24.0853C14.2652 24.2609 14.5556 24.6123 14.8653 25.2759C15.0977 25.8028 15.3881 26.3884 15.4848 26.5835C15.5816 26.7787 15.6397 28.1254 15.6204 29.5502C15.5816 31.8728 15.6204 32.2241 15.9301 32.5754C16.7239 33.4732 16.7045 33.4732 28.417 33.5123C39.0453 33.5513 39.5874 33.5318 40.1488 33.1805C41.2135 32.5364 41.3684 31.9313 41.291 28.9061L41.2135 26.2322L41.8911 25.2173C42.7236 23.9877 43.3624 23.6949 44.8338 23.8706C45.7049 23.9682 46.0728 24.1243 46.5761 24.6318C47.1956 25.2173 47.2343 25.3149 47.1569 26.3688C47.0601 27.657 46.7116 28.1645 45.5307 28.6719Z" fill="#D29916"/>
<path d="M47.1574 26.3697C47.0606 27.6579 46.7121 28.1653 45.5312 28.6728L44.7375 29.0241L44.6213 30.644C44.5439 31.5418 44.4858 33.2204 44.4858 34.3719C44.4858 36.2651 44.4471 36.4798 44.0986 36.675C43.8276 36.8116 38.9877 36.8506 28.3013 36.7921C14.0528 36.714 12.8718 36.675 12.5234 36.3627C12.1943 36.0699 12.1555 35.7186 12.1362 33.1813C12.1362 29.4339 12.02 28.8484 11.2844 28.5166C9.69688 27.8335 9.7356 27.8725 9.75496 26.5063C9.77432 25.1011 10.1809 24.0666 10.8585 23.7934C11.3618 23.5787 12.988 23.7543 13.8204 24.0861C14.2657 24.2618 14.5561 24.6131 14.8659 25.2767C15.0982 25.8037 15.3886 26.3892 15.4854 26.5844C15.5822 26.7796 15.6402 28.1263 15.6209 29.5511C15.5822 31.8736 15.6209 32.225 15.9306 32.5763C16.7244 33.4741 16.705 33.4741 28.4175 33.5131C39.0458 33.5522 39.5879 33.5326 40.1493 33.1813C41.2141 32.5372 41.3689 31.9322 41.2915 28.907L41.2141 26.2331L41.8916 25.2182C42.7241 23.9886 43.363 23.6958 44.8343 23.8714C45.7054 23.969 46.0733 24.1252 46.5766 24.6326C47.1961 25.2182 47.2348 25.3157 47.1574 26.3697Z" fill="#D29916"/>
<path d="M26.4034 27.1523C25.6484 27.1523 23.2865 27.2499 21.1764 27.328C19.0468 27.4256 17.3045 27.5231 17.3045 27.5427C17.2851 27.5817 17.3045 28.5185 17.3432 29.6506L17.4206 31.6999L27.6811 31.6218L27.7392 29.3773L27.7973 27.1133L26.4034 27.1523ZM27.3133 29.4554C27.3133 30.4703 27.2359 31.29 27.1778 31.251C27.1197 31.2315 24.9902 31.212 22.4347 31.212H17.8272L17.6917 29.7091C17.6336 28.8894 17.6529 28.1282 17.7497 28.0306C17.9046 27.8745 24.1577 27.5427 26.2872 27.5817L27.352 27.6012L27.3133 29.4554Z" fill="#D29916"/>
<path d="M27.3532 27.6008L27.3145 29.455C27.3145 30.4699 27.237 31.2896 27.179 31.2506C27.1209 31.2311 24.9913 31.2116 22.4359 31.2116H17.8283L17.6928 29.7087C17.6347 28.889 17.6541 28.1278 17.7509 28.0302C17.9058 27.8741 24.1589 27.5423 26.2884 27.5813L27.3532 27.6008Z" fill="#D29916"/>
<path d="M39.6264 31.2705C39.4715 31.0949 39.4328 30.5093 39.5296 29.4554C39.607 28.46 39.5877 27.8745 39.4521 27.7964C39.336 27.7183 37.884 27.5817 36.1998 27.5036C34.5348 27.406 32.2698 27.2694 31.1857 27.1914C30.0822 27.1133 29.1916 27.0938 29.1916 27.1328C29.1916 27.1718 29.1336 28.2453 29.0948 29.5139L28.998 31.817L31.6697 31.7975C33.1216 31.778 35.5609 31.7194 37.0709 31.6609C39.3941 31.5633 39.8006 31.5047 39.6264 31.2705ZM39.1424 29.7677L39.0069 31.3096L29.3272 31.4267L29.4627 30.2166C29.5208 29.553 29.5788 28.6747 29.5788 28.2648C29.5788 27.6012 29.6369 27.5036 30.0241 27.5231C30.2564 27.5231 32.386 27.6403 34.7478 27.7769C37.129 27.9135 39.1037 28.0696 39.1618 28.1087C39.2005 28.1672 39.2005 28.9089 39.1424 29.7677Z" fill="#D29916"/>
<path d="M39.1434 29.7663L39.0078 31.3082L29.3281 31.4253L29.4636 30.2152C29.5217 29.5516 29.5798 28.6733 29.5798 28.2634C29.5798 27.5998 29.6379 27.5022 30.0251 27.5218C30.2574 27.5218 32.3869 27.6389 34.7488 27.7755C37.13 27.9121 39.1046 28.0683 39.1627 28.1073C39.2014 28.1658 39.2014 28.9075 39.1434 29.7663Z" fill="#D29916"/>
<path d="M14.6523 38.2383L14.7104 39.9363L14.7685 41.6539L17.4401 41.7124L20.0923 41.771V38.2383H14.6523ZM19.7052 41.3221L17.595 41.3025C16.4334 41.283 15.4074 41.2049 15.3299 41.1269C15.1557 40.9317 15.0783 39.7802 15.2138 39.1166C15.2654 38.7913 16.0269 38.6286 17.4982 38.6286H19.7052V41.3221Z" fill="#444EAD"/>
<path d="M19.7069 38.6289V41.3223L17.5967 41.3028C16.4351 41.2833 15.4091 41.2052 15.3317 41.1272C15.1574 40.932 15.08 39.7804 15.2155 39.1168C15.2671 38.7916 16.0286 38.6289 17.4999 38.6289H19.7069Z" fill="#444EAD"/>
<path d="M36.3555 38.2383V41.7514H41.7761V38.2383H36.3555ZM39.0658 41.3416L36.7427 41.3806V40.4438C36.7427 38.5896 36.6846 38.6482 39.1432 38.6872L41.2921 38.7262L41.3502 40.0144L41.4083 41.3221L39.0658 41.3416Z" fill="#444EAD"/>
<path d="M41.4079 41.3191L39.0654 41.3386L36.7423 41.3777V40.4408C36.7423 38.5867 36.6842 38.6452 39.1429 38.6842L41.2918 38.7233L41.3499 40.0114L41.4079 41.3191Z" fill="#444EAD"/>
<path d="M49.5975 49.8699C49.1522 49.4209 48.6101 49.4795 48.2617 50.026C47.6615 50.9238 48.7457 51.9192 49.5394 51.197C49.9847 50.7872 50.004 50.2797 49.5975 49.8699ZM49.462 50.6506C49.3845 50.9824 49.3458 50.9824 49.2296 50.5725C49.1522 50.3383 48.9586 50.1431 48.8231 50.1431C48.494 50.1431 48.4553 50.8652 48.8037 50.9824C48.9393 51.0214 48.9199 51.0409 48.7457 51.0409C48.3198 51.0019 48.2617 50.2992 48.6682 50.0065C48.9586 49.7918 49.0554 49.7918 49.2877 50.026C49.4426 50.1626 49.52 50.4554 49.462 50.6506Z" fill="black"/>
<path d="M21.8744 55.2163C21.6033 55.2163 21.4291 54.9236 21.1774 54.0843C20.9838 53.4793 20.6934 52.6986 20.5192 52.3863C20.3643 52.0545 20.2482 51.469 20.2675 51.0591L20.3062 50.3369L19.377 50.3174C18.8737 50.2979 18.2541 50.2589 18.0025 50.2393C17.7702 50.2198 17.5379 50.2589 17.4798 50.3369C17.4411 50.415 17.4217 50.9029 17.4411 51.4299C17.4604 51.9764 17.3443 52.7376 17.1507 53.167C16.9764 53.5964 16.7248 54.2404 16.6086 54.5722C16.4537 54.9821 16.2408 55.2163 16.0085 55.2163C15.7181 55.2163 15.6406 55.3725 15.6406 55.997V56.7582H18.3509V56.0751C18.3509 55.4505 18.3897 55.4115 18.9898 55.4115C19.5899 55.4115 19.6287 55.431 19.5512 56.0946L19.4738 56.7777H22.2228V55.997C22.2228 55.3725 22.1454 55.2163 21.8744 55.2163ZM20.7709 56.0946C20.3256 56.0946 20.132 55.958 19.9384 55.5481C19.7255 55.1187 19.5512 55.0211 18.9704 55.0211C18.1574 55.0211 17.654 55.2749 17.8476 55.5676C18.0412 55.8994 17.3443 56.1727 16.8216 55.9775L16.3569 55.8019L16.7635 55.3529C17.1119 54.9821 17.2668 54.5722 17.7121 52.7181C17.7702 52.4839 17.9057 52.2887 18.0025 52.2887C18.0993 52.2887 18.138 52.113 18.0606 51.8983C17.7895 51.0591 18.409 50.6492 19.4157 50.981C19.6674 51.0591 19.8223 51.3128 19.861 51.6056C19.8803 51.8788 20.2095 52.8547 20.5966 53.7915C21.4872 55.997 21.4872 56.0946 20.7709 56.0946Z" fill="#444EAD"/>
<path d="M20.5971 53.7928C20.21 52.856 19.8808 51.8801 19.8615 51.6068C19.8228 51.3141 19.6679 51.0604 19.4162 50.9823C18.4095 50.6505 17.79 51.0604 18.0611 51.8996C18.1385 52.1143 18.0998 52.29 18.003 52.29C17.9062 52.29 17.7707 52.4851 17.7126 52.7193C17.2673 54.5735 17.1124 54.9834 16.764 55.3542L16.3574 55.8031L16.822 55.9788C17.3448 56.174 18.0417 55.9007 17.8481 55.5689C17.6545 55.2761 18.1578 55.0224 18.9709 55.0224C19.5517 55.0224 19.726 55.12 19.9389 55.5494C20.1325 55.9593 20.3261 56.0959 20.7714 56.0959C21.4877 56.0959 21.4877 55.9983 20.5971 53.7928ZM19.4162 53.6562C19.3581 53.7733 19.0871 53.8514 18.8354 53.8514C18.1966 53.8514 18.0804 53.5781 18.4482 52.8755C18.6031 52.5632 18.7967 52.29 18.8354 52.29C19.029 52.29 19.513 53.4805 19.4162 53.6562Z" fill="#444EAD"/>
<path d="M29.2693 55.4116C28.9789 55.4116 28.9595 55.2359 29.095 53.6159C29.1725 52.6206 29.2886 51.7618 29.3854 51.7032C29.5596 51.5861 29.7532 50.337 29.5984 50.2784C29.5403 50.2589 28.9789 50.2589 28.3787 50.298L27.2752 50.3565L26.7332 51.5081C26.1524 52.7572 25.9975 52.8938 25.8039 52.2888C25.7265 52.0741 25.4554 51.5471 25.1651 51.1177C24.6811 50.3565 24.6424 50.337 23.5389 50.337H22.416L22.5515 50.9616C22.6096 51.3129 22.7451 51.6642 22.8419 51.7227C23.0936 51.8789 23.0936 55.2164 22.8613 55.3725C22.7451 55.4506 22.6677 55.8214 22.687 56.1923C22.7064 56.8168 22.7645 56.8754 23.384 56.9339C23.7325 56.973 24.3326 56.9535 24.6811 56.8754C25.2619 56.7778 25.3199 56.6997 25.3199 56.0947C25.3199 55.6263 25.2231 55.4116 25.0295 55.4116C24.8553 55.4116 24.7391 55.2359 24.7391 54.9236C24.7391 54.3576 25.0489 54.2795 25.2231 54.8065C25.2812 55.0017 25.5135 55.3335 25.7265 55.5287C26.1717 55.9385 26.2105 55.8995 27.101 54.6113L27.4301 54.1429V54.7675C27.4495 55.2164 27.3527 55.4116 27.1591 55.4116C26.9461 55.4116 26.8687 55.6263 26.8687 56.0947V56.7973L28.1851 56.7388L29.4822 56.6802L29.5403 56.0361C29.5984 55.5482 29.5209 55.4116 29.2693 55.4116ZM28.7272 55.0212C28.9595 56.1337 28.7466 56.5241 28.0303 56.2899C27.6043 56.1532 27.585 56.0947 27.6431 54.9041C27.6818 53.8697 27.4108 53.694 26.83 54.3771C26.2685 55.0602 25.8426 55.0602 25.3199 54.3771C25.0876 54.0844 24.8359 53.8502 24.7585 53.8502C24.5068 53.8502 24.352 55.2554 24.5456 55.5287C24.8359 55.8605 24.5649 56.3679 24.0422 56.5045C23.4227 56.6607 23.2098 56.4655 23.3259 55.8409C23.5001 55.0407 23.5001 52.2497 23.3453 51.8008C23.2678 51.5861 23.2678 51.2934 23.3646 51.1372C23.6744 50.6493 24.4681 51.0787 25.2231 52.0936C25.6103 52.6206 26.0169 53.0695 26.1137 53.0695C26.2105 53.0695 26.5977 52.5815 26.9848 52.0155C27.585 51.0982 27.8367 50.864 28.4174 50.7469C28.4755 50.7469 28.611 50.8054 28.7466 50.8835C28.9014 50.9811 28.9208 51.3909 28.7466 52.5425C28.5917 53.5964 28.5917 54.3381 28.7272 55.0212Z" fill="#444EAD"/>
<path d="M28.7268 55.0204C28.9592 56.1329 28.7462 56.5233 28.0299 56.2891C27.604 56.1525 27.5846 56.0939 27.6427 54.9033C27.6814 53.8689 27.4104 53.6932 26.8296 54.3764C26.2682 55.0595 25.8423 55.0595 25.3196 54.3764C25.0873 54.0836 24.8356 53.8494 24.7582 53.8494C24.5065 53.8494 24.3516 55.2546 24.5452 55.5279C24.8356 55.8597 24.5646 56.3671 24.0419 56.5038C23.4224 56.6599 23.2094 56.4647 23.3256 55.8402C23.4998 55.04 23.4998 52.2489 23.3449 51.8C23.2675 51.5853 23.2675 51.2926 23.3643 51.1364C23.674 50.6485 24.4678 51.0779 25.2228 52.0928C25.61 52.6198 26.0165 53.0687 26.1133 53.0687C26.2101 53.0687 26.5973 52.5807 26.9845 52.0147C27.5846 51.0974 27.8363 50.8632 28.4171 50.7461C28.4752 50.7461 28.6107 50.8046 28.7462 50.8827C28.9011 50.9803 28.9204 51.3902 28.7462 52.5417C28.5913 53.5957 28.5913 54.3373 28.7268 55.0204Z" fill="#444EAD"/>
<path d="M13.4524 52.701C13.5299 52.9742 13.6847 53.0133 14.2462 52.9352C14.6527 52.8961 15.0786 52.8181 15.2141 52.7595C15.6594 52.6229 15.4464 52.0179 14.6333 51.1786C13.859 50.3784 13.7622 50.3394 12.7361 50.3589C11.7681 50.3589 11.6133 50.4369 10.9744 51.081C10.2968 51.7836 10.2581 51.8617 10.1613 53.6378C10.0452 55.4139 10.0645 55.492 10.5291 55.9409C11.2842 56.6435 11.6713 56.7801 12.8716 56.7801C13.917 56.7801 14.0719 56.7216 14.6527 56.1165L15.3109 55.4334L14.6527 54.7503C13.8783 53.9111 13.7622 53.8915 13.4718 54.5356C13.2588 55.0236 12.8716 55.1407 12.2715 54.9065C11.8456 54.7503 11.8456 52.8376 12.2521 52.4277C12.6006 52.0569 13.3363 52.2326 13.4524 52.701ZM11.4584 53.8135C11.5358 54.399 11.7101 54.9845 11.8456 55.1407C12.1747 55.4529 13.1814 55.492 13.7234 55.2187C14.0138 55.0431 14.13 55.0821 14.2074 55.3163C14.401 55.7847 13.7234 56.1751 12.6974 56.1946C11.9037 56.1946 11.6907 56.097 11.2067 55.5896C10.6066 54.965 10.5679 54.6332 10.9163 52.3497C11.1293 50.9834 13.0846 50.3979 14.0332 51.4323C14.6333 52.0764 14.3623 52.4082 13.5879 51.9983C12.7555 51.569 12.2328 51.647 11.7681 52.2325C11.4003 52.701 11.3616 52.9352 11.4584 53.8135Z" fill="#444EAD"/>
<path d="M11.7685 52.2294C11.4007 52.6978 11.3619 52.932 11.4587 53.8103C11.5362 54.3958 11.7104 54.9813 11.8459 55.1375C12.175 55.4498 13.1817 55.4888 13.7238 55.2156C14.0142 55.0399 14.1303 55.0789 14.2078 55.3131C14.4014 55.7816 13.7238 56.1719 12.6977 56.1914C11.904 56.1914 11.691 56.0938 11.2071 55.5864C10.6069 54.9618 10.5682 54.63 10.9167 52.3465C11.1296 50.9802 13.0849 50.3947 14.0335 51.4292C14.6337 52.0732 14.3626 52.405 13.5883 51.9952C12.7558 51.5658 12.2331 51.6438 11.7685 52.2294Z" fill="#444EAD"/>
<path d="M35.2127 51.2728C34.5932 50.3945 34.419 50.3359 32.1539 50.3359H30.3535V50.9995C30.3535 51.3704 30.4503 51.7022 30.5665 51.7412C30.702 51.7802 30.8181 52.5219 30.8762 53.5173C30.973 54.9616 30.9343 55.2348 30.6633 55.3324C30.4503 55.4105 30.3535 55.6837 30.3535 56.2302V56.9914L31.67 56.9329L32.967 56.8743L33.0251 56.1326C33.0638 55.5862 33.0251 55.4105 32.7928 55.4105C32.6186 55.4105 32.4831 55.3324 32.4831 55.2348C32.4831 55.1373 32.9283 55.0201 33.4704 54.9811C34.7481 54.8445 35.387 54.2394 35.5806 52.9318C35.7161 52.112 35.6774 51.9169 35.2127 51.2728ZM33.3349 54.5127C32.4831 54.7274 32.3863 54.8055 32.3669 55.3324C32.3088 56.6011 32.3282 56.5816 31.6119 56.5816C31.0311 56.5816 30.9343 56.523 30.9343 56.1326C30.9343 55.8789 31.0311 55.5862 31.1666 55.4495C31.457 55.1568 31.4376 52.2877 31.1279 51.7022C30.7601 51.0191 31.1473 50.8044 32.696 50.8434C34.0125 50.8629 34.1286 50.9019 34.6513 51.4875C35.6967 52.6585 35.0772 54.0638 33.3349 54.5127Z" fill="#444EAD"/>
<path d="M34.6506 51.4883C34.1279 50.9028 34.0117 50.8638 32.6953 50.8443C31.1465 50.8052 30.7594 51.0199 31.1272 51.703C31.4369 52.2886 31.4563 55.1576 31.1659 55.4504C31.0304 55.587 30.9336 55.8798 30.9336 56.1335C30.9336 56.5239 31.0304 56.5824 31.6112 56.5824C32.3275 56.5824 32.3081 56.6019 32.3662 55.3333C32.3856 54.8063 32.4824 54.7282 33.3342 54.5136C35.0765 54.0646 35.696 52.6594 34.6506 51.4883ZM34.0505 53.2644C33.8762 53.5377 32.5791 53.6353 32.3468 53.3815C32.1145 53.1473 32.2307 52.0543 32.5017 51.8787C33.4697 51.2541 34.6506 52.2886 34.0505 53.2644Z" fill="#444EAD"/>
<path d="M32.5021 51.8813C32.2311 52.057 32.1149 53.15 32.3472 53.3842C32.5795 53.6379 33.8766 53.5403 34.0508 53.2671C34.651 52.2912 33.4701 51.2567 32.5021 51.8813ZM33.199 53.228C32.8506 53.2671 32.6376 53.189 32.5602 52.9938C32.3472 52.4473 32.6376 52.057 33.199 52.135C33.6249 52.1741 33.7411 52.2912 33.7411 52.6815C33.7411 53.0719 33.6249 53.189 33.199 53.228Z" fill="#444EAD"/>
<path d="M39.4532 50.3359V51.0191C39.4532 51.3899 39.55 51.7022 39.6468 51.7022C39.7823 51.7022 39.8404 52.2877 39.8017 53.3026C39.7436 54.8445 39.7242 54.9226 39.279 54.9811C38.9886 55.0397 38.6982 54.9226 38.5433 54.7079C38.2142 54.259 38.1949 51.9169 38.5433 51.7998C38.6595 51.7412 38.7756 51.3899 38.795 51.0191L38.8144 50.3359H36.1621V51.0191C36.1621 51.4289 36.2783 51.7607 36.4331 51.8193C36.6461 51.8973 36.7042 52.3853 36.7235 53.8101C36.7429 55.6447 36.7623 55.7033 37.3237 56.2302C38.4078 57.2256 40.0534 57.1866 41.1568 56.1326C41.5698 55.7293 41.7763 54.89 41.7763 53.6149C41.7763 52.1511 41.8344 51.7022 42.028 51.7412C42.3184 51.8193 42.3571 51.7022 42.3571 50.9215V50.3359H39.4532ZM41.4279 51.3118C41.3892 51.5851 41.3311 52.4634 41.3117 53.2636C41.273 54.0638 41.2343 54.825 41.2149 54.9616C41.2149 55.0787 40.9633 55.4495 40.6922 55.7813C40.0921 56.5035 39.1241 56.6011 38.1561 55.996C37.343 55.5081 37.1882 55.1568 37.1494 53.7515C37.1494 53.1074 37.072 52.2096 37.0139 51.7412C36.8978 50.9605 36.9171 50.9215 37.3818 50.9215C37.9045 50.9215 38.2529 51.4875 37.9819 51.9169C37.7496 52.3072 37.9045 54.4346 38.2142 54.903C38.5627 55.4691 39.3177 55.6447 39.821 55.2934C40.2857 54.9616 40.518 53.2636 40.247 52.112C39.9953 50.98 40.1308 50.6872 40.8858 50.7653C41.4085 50.8239 41.486 50.9019 41.4279 51.3118Z" fill="#444EAD"/>
<path d="M41.4268 51.3122C41.3881 51.5855 41.33 52.4638 41.3107 53.264C41.2719 54.0642 41.2332 54.8254 41.2139 54.962C41.2139 55.0791 40.9622 55.4499 40.6912 55.7817C40.091 56.5039 39.123 56.6015 38.1551 55.9964C37.342 55.5085 37.1871 55.1572 37.1484 53.7519C37.1484 53.1078 37.071 52.21 37.0129 51.7416C36.8967 50.9609 36.9161 50.9219 37.3807 50.9219C37.9034 50.9219 38.2519 51.4879 37.9808 51.9173C37.7485 52.3076 37.9034 54.435 38.2132 54.9035C38.5616 55.4695 39.3166 55.6451 39.82 55.2938C40.2846 54.962 40.5169 53.264 40.2459 52.1125C39.9942 50.9804 40.1297 50.6877 40.8848 50.7657C41.4075 50.8243 41.4849 50.9024 41.4268 51.3122Z" fill="#444EAD"/>
<path d="M45.5128 52.854C45.0481 52.7174 44.6803 52.5417 44.6803 52.4441C44.6803 52.0538 45.2417 52.1123 46.1129 52.5808C46.6356 52.854 47.0615 53.0492 47.0809 53.0297C47.0809 52.9906 47.2938 52.6979 47.5455 52.3466C47.7778 51.9952 47.9714 51.6439 47.9714 51.5463C47.9714 51.2731 45.9774 50.3363 45.4547 50.3558C45.1837 50.3558 44.719 50.4534 44.3899 50.5509C43.2864 50.8827 42.5701 52.6588 43.1896 53.4786C43.5381 53.947 44.2931 54.2983 45.1643 54.4154C45.6677 54.4935 45.9387 54.6301 45.9387 54.8253C45.9387 55.2156 44.7771 55.1571 44.3125 54.7472C44.1189 54.5716 43.8285 54.4349 43.6543 54.4349C43.3639 54.4349 42.5508 55.2937 42.5508 55.606C42.5508 55.6841 42.8993 55.9768 43.3252 56.2696C44.6803 57.1674 47.3519 56.8551 47.7004 55.7426C47.7585 55.5279 47.7585 55.0009 47.7004 54.5325C47.5649 53.6347 47.197 53.3615 45.5128 52.854ZM46.6937 55.8988C46.3452 56.211 45.9 56.3867 45.4934 56.3867C44.661 56.3867 43.5188 55.8987 43.5188 55.5474C43.5188 55.118 44.0802 54.9814 44.5448 55.3132C45.1256 55.7231 45.7257 55.6841 46.1323 55.2156C46.4807 54.8253 46.4807 54.8058 46.0936 54.4154C45.8806 54.2007 45.3385 53.9665 44.9126 53.908C44.2931 53.8299 44.0221 53.6737 43.7317 53.2248C43.2864 52.5027 43.3832 52.0343 44.1576 51.3902C44.661 50.9608 44.8933 50.9023 45.5902 50.9803C46.0548 51.0194 46.5582 51.1755 46.7131 51.3121C46.8679 51.4488 47.0035 51.722 47.0035 51.9367C47.0035 52.2685 46.926 52.3075 46.4807 52.1904C46.171 52.1123 45.6289 52.0343 45.2611 52.0343C44.719 51.9952 44.5642 52.0733 44.5254 52.3856C44.4867 52.6784 44.661 52.8735 45.1643 53.1273C45.5515 53.3029 45.9968 53.4591 46.1516 53.4591C46.6163 53.4591 47.0228 53.9665 47.139 54.7277C47.2358 55.3132 47.1583 55.4889 46.6937 55.8988Z" fill="#444EAD"/>
<path d="M46.6924 55.9009C46.344 56.2132 45.8987 56.3889 45.4921 56.3889C44.6597 56.3889 43.5175 55.9009 43.5175 55.5496C43.5175 55.1202 44.0789 54.9836 44.5435 55.3154C45.1243 55.7253 45.7244 55.6862 46.131 55.2178C46.4795 54.8275 46.4795 54.8079 46.0923 54.4176C45.8793 54.2029 45.3373 53.9687 44.9114 53.9101C44.2919 53.8321 44.0208 53.6759 43.7304 53.227C43.2852 52.5049 43.382 52.0364 44.1563 51.3924C44.6597 50.963 44.892 50.9044 45.5889 50.9825C46.0536 51.0215 46.5569 51.1777 46.7118 51.3143C46.8667 51.4509 47.0022 51.7242 47.0022 51.9389C47.0022 52.2707 46.9247 52.3097 46.4795 52.1926C46.1697 52.1145 45.6277 52.0364 45.2598 52.0364C44.7178 51.9974 44.5629 52.0755 44.5242 52.3878C44.4854 52.6805 44.6597 52.8757 45.163 53.1294C45.5502 53.3051 45.9955 53.4612 46.1504 53.4612C46.615 53.4612 47.0215 53.9687 47.1377 54.7299C47.2345 55.3154 47.1571 55.491 46.6924 55.9009Z" fill="#444EAD"/>
<path d="M18.8937 61.677C18.3517 61.3842 17.9645 61.5013 17.9645 61.9698C17.9645 62.1844 17.7902 62.243 17.345 62.204C16.7061 62.1454 16.7061 62.1844 16.7835 60.0961C16.8029 59.8423 16.9384 59.7057 17.1707 59.7057C17.7322 59.7057 18.1581 59.9204 18.1581 60.1741C18.1581 60.3108 18.4484 60.4084 18.9324 60.3888C19.881 60.3888 19.9391 60.0765 19.1454 58.964C18.4484 58.0272 18.4872 58.0272 17.345 58.1053C16.648 58.1443 16.2608 58.3005 15.7381 58.7689L15.0605 59.3934V62.809L15.7768 63.3555C16.377 63.8239 16.6287 63.902 17.5579 63.863C18.5259 63.8044 18.7195 63.7263 19.2809 63.1213C19.9778 62.3796 19.9391 62.2235 18.8937 61.677ZM18.8356 63.0237C18.1387 63.7654 16.9771 63.7849 16.0866 63.1018C15.4671 62.6334 15.4477 62.5748 15.4477 61.111C15.4477 59.7448 15.4865 59.5691 15.9898 59.0812C16.4351 58.6323 16.648 58.5542 17.4611 58.5932C18.2549 58.6323 18.4872 58.7298 18.8163 59.1787C19.1454 59.6472 19.1647 59.7448 18.9324 59.9009C18.7388 60.018 18.5452 59.979 18.3323 59.7838C18.1193 59.5886 17.7321 59.5105 17.2482 59.5496L16.5125 59.6081L16.4544 60.8377C16.4157 61.5794 16.4931 62.1844 16.6287 62.3601C16.8997 62.6919 17.6547 62.7114 18.0032 62.3796C18.2936 62.1064 18.7195 62.0869 19.0873 62.3211C19.3003 62.4382 19.2422 62.5943 18.8356 63.0237Z" fill="#D09918"/>
<path d="M18.8352 63.0252C18.1382 63.7669 16.9767 63.7864 16.0861 63.1033C15.4666 62.6349 15.4473 62.5763 15.4473 61.1125C15.4473 59.7463 15.486 59.5706 15.9893 59.0827C16.4346 58.6338 16.6476 58.5557 17.4606 58.5948C18.2544 58.6338 18.4867 58.7314 18.8158 59.1803C19.1449 59.6487 19.1643 59.7463 18.932 59.9024C18.7384 60.0195 18.5448 59.9805 18.3318 59.7853C18.1189 59.5902 17.7317 59.5121 17.2477 59.5511L16.512 59.6097L16.454 60.8393C16.4152 61.5809 16.4927 62.186 16.6282 62.3616C16.8992 62.6934 17.6542 62.713 18.0027 62.3812C18.2931 62.1079 18.719 62.0884 19.0868 62.3226C19.2998 62.4397 19.2417 62.5959 18.8352 63.0252Z" fill="#D09918"/>
<path d="M31.4761 58.7893C31.418 58.2819 31.3406 58.2429 30.3533 58.1258C29.7725 58.0672 29.2304 58.0477 29.153 58.0867C28.9207 58.2038 28.9594 59.3163 29.1917 59.3163C29.3079 59.3163 29.3853 59.9409 29.3853 60.7801V62.244H28.0301V60.9363C28.0301 60.2141 28.1269 59.3554 28.2624 58.9845C28.3786 58.6332 28.456 58.3209 28.398 58.2624C28.3592 58.2233 27.8172 58.1453 27.217 58.1062C26.191 58.0282 26.1135 58.0477 25.9974 58.4771C25.9393 58.7308 25.978 59.1016 26.0942 59.3163C26.191 59.5115 26.2878 60.3508 26.2878 61.1705C26.2878 62.6148 26.3071 62.6929 26.946 63.3369C27.5461 63.942 27.701 64.0005 28.7464 64.0005C29.8499 64.0005 29.908 63.981 30.5275 63.1613C31.147 62.3611 31.147 62.3025 31.0502 60.9558C30.9534 59.7847 30.9921 59.531 31.2438 59.4334C31.4374 59.3554 31.5148 59.1407 31.4761 58.7893ZM30.934 59.1211C30.8179 59.1211 30.7404 59.7847 30.7404 60.7216C30.7404 62.1268 30.6824 62.3806 30.2371 62.9661C29.8112 63.5321 29.6563 63.6102 28.8045 63.6102C28.0688 63.6102 27.7397 63.4931 27.2751 63.1027C26.6943 62.6148 26.675 62.5562 26.675 60.9753C26.675 60.0385 26.5782 59.2773 26.462 59.2187C26.0555 58.9455 26.4427 58.6527 27.217 58.6332C27.9914 58.6137 28.2431 58.7698 27.8365 59.0236C27.5074 59.2383 27.6042 61.9707 27.9527 62.322C28.3205 62.7124 29.2691 62.7319 29.5789 62.3415C29.8112 62.0683 29.7531 59.9214 29.4821 58.926C29.3659 58.438 29.3853 58.438 30.2371 58.4966C30.8372 58.5551 31.1276 58.6722 31.1276 58.8479C31.1276 59.004 31.0502 59.1211 30.934 59.1211Z" fill="#D09918"/>
<path d="M31.1282 58.8463C31.1282 59.0025 31.0508 59.1196 30.9346 59.1196C30.8185 59.1196 30.741 59.7832 30.741 60.72C30.741 62.1253 30.683 62.379 30.2377 62.9645C29.8118 63.5305 29.6569 63.6086 28.8051 63.6086C28.0694 63.6086 27.7403 63.4915 27.2757 63.1011C26.6949 62.6132 26.6756 62.5547 26.6756 60.9737C26.6756 60.0369 26.5788 59.2757 26.4626 59.2172C26.0561 58.9439 26.4432 58.6511 27.2176 58.6316C27.992 58.6121 28.2437 58.7683 27.8371 59.022C27.508 59.2367 27.6048 61.9691 27.9533 62.3204C28.3211 62.7108 29.2697 62.7303 29.5795 62.34C29.8118 62.0667 29.7537 59.9198 29.4827 58.9244C29.3665 58.4365 29.3859 58.4365 30.2377 58.495C30.8378 58.5536 31.1282 58.6707 31.1282 58.8463Z" fill="#D09918"/>
<path d="M42.9382 62.5354C42.6478 62.3402 42.6865 59.5687 42.9963 59.4516C43.2286 59.3735 43.3061 58.4367 43.1125 58.261C42.9576 58.1439 40.8474 57.9878 40.7312 58.0854C40.5377 58.2805 40.5957 59.315 40.8087 59.315C40.9248 59.315 41.0023 59.5297 41.0023 59.8029C41.0023 60.1933 40.9055 60.2909 40.5377 60.2909C40.286 60.2909 39.9375 60.2323 39.7633 60.1738C39.3761 60.0176 39.3567 59.5102 39.7439 59.5102C39.9375 59.5102 40.0343 59.2955 40.0343 58.827V58.1439H37.5176L37.6337 58.6709C37.7112 58.9832 37.8467 59.2955 37.9241 59.4126C38.2145 59.7053 38.1371 62.3597 37.8467 62.6134C37.6918 62.7306 37.6144 63.0624 37.6725 63.4137C37.7499 64.0187 37.7693 64.0187 38.8534 63.9602C39.9182 63.9016 39.9375 63.9016 39.9956 63.2575C40.0343 62.9062 39.9762 62.633 39.8601 62.633C39.7439 62.633 39.6471 62.4573 39.6471 62.2426C39.6471 61.9303 39.7826 61.8523 40.3247 61.8523C40.7893 61.8523 41.0023 61.9498 41.0023 62.1255C41.0023 62.2816 40.9248 62.4573 40.8474 62.5159C40.77 62.5744 40.7312 62.9257 40.77 63.2966L40.8474 63.9992H43.1318V63.3356C43.1318 62.9648 43.0544 62.5939 42.9382 62.5354ZM41.9702 63.6088H41.0604L41.1378 62.5354L41.2346 61.4619H40.3634C39.3954 61.4619 39.1631 61.7352 39.4535 62.5549C39.7826 63.3746 39.6858 63.6088 39.0857 63.6088C38.4856 63.6088 38.0403 63.2185 38.1952 62.8086C38.4081 62.2426 38.4081 59.315 38.2145 59.2564C38.0984 59.2174 38.2145 59.0027 38.4856 58.7685L38.9695 58.3586L39.3567 58.7685C39.6278 59.0417 39.6665 59.1979 39.5116 59.2564C39.3761 59.315 39.2599 59.5882 39.2599 59.9005C39.2599 60.3884 39.3374 60.447 40.1311 60.5641C40.6151 60.6422 41.0797 60.6422 41.1959 60.5836C41.4475 60.4275 41.4475 59.1198 41.1959 59.1198C41.0991 59.1198 41.0023 58.9246 41.0023 58.7099C41.0023 58.3391 41.0797 58.3001 41.6992 58.3977C42.0864 58.4562 42.5123 58.6123 42.6672 58.749C42.9189 58.9441 42.8995 59.0222 42.6478 59.315C42.3187 59.6663 42.2219 62.5159 42.5317 62.711C42.6285 62.7696 42.7446 63.0038 42.8027 63.2185C42.8995 63.5698 42.8027 63.6088 41.9702 63.6088Z" fill="#D09918"/>
<path d="M42.8026 63.2181C42.8994 63.5694 42.8026 63.6084 41.9702 63.6084H41.0603L41.1377 62.535L41.2345 61.4615H40.3633C39.3954 61.4615 39.163 61.7348 39.4534 62.5545C39.7825 63.3742 39.6857 63.6084 39.0856 63.6084C38.4855 63.6084 38.0402 63.2181 38.1951 62.8082C38.408 62.2422 38.408 59.3146 38.2144 59.256C38.0983 59.217 38.2144 59.0023 38.4855 58.7681L38.9694 58.3582L39.3566 58.7681C39.6277 59.0413 39.6664 59.1975 39.5115 59.256C39.376 59.3146 39.2598 59.5878 39.2598 59.9001C39.2598 60.388 39.3373 60.4466 40.131 60.5637C40.615 60.6418 41.0796 60.6418 41.1958 60.5832C41.4475 60.4271 41.4475 59.1194 41.1958 59.1194C41.099 59.1194 41.0022 58.9242 41.0022 58.7095C41.0022 58.3387 41.0796 58.2997 41.6991 58.3972C42.0863 58.4558 42.5122 58.6119 42.6671 58.7486C42.9188 58.9437 42.8994 59.0218 42.6477 59.3146C42.3186 59.6659 42.2218 62.5155 42.5316 62.7106C42.6284 62.7692 42.7445 63.0034 42.8026 63.2181Z" fill="#D09918"/>
<path d="M24.4868 58.7691C23.9254 58.2226 23.7125 58.1445 22.7832 58.1445C21.854 58.1445 21.641 58.2226 21.157 58.7301C20.6343 59.2765 20.5956 59.4132 20.5956 61.0136C20.5762 62.575 20.6149 62.7312 21.0989 63.2581C21.5442 63.7461 21.7378 63.8046 22.7445 63.8046C23.7125 63.7851 23.9448 63.707 24.5062 63.2191C25.1063 62.6531 25.1257 62.5945 25.1257 61.0136C25.1257 59.4327 25.1063 59.3741 24.4868 58.7691ZM24.2545 62.9263C23.848 63.3362 23.5769 63.4143 22.7058 63.4143C21.157 63.4143 20.8279 62.9849 20.886 61.0722C20.9053 59.8035 20.9828 59.5303 21.4087 59.0619C21.8152 58.6325 22.0669 58.5349 22.7832 58.5349C23.4995 58.5349 23.7705 58.6325 24.2158 59.1009C24.6804 59.6083 24.7385 59.823 24.7385 61.0526C24.7385 62.2823 24.6804 62.4774 24.2545 62.9263Z" fill="#D09918"/>
<path d="M24.2169 59.1012C23.7716 58.6327 23.52 58.5352 22.7843 58.5352C22.0486 58.5352 21.8163 58.6327 21.4098 59.0621C20.9839 59.5305 20.9064 59.8038 20.8871 61.0724C20.829 62.9852 21.1581 63.4145 22.7069 63.4145C23.578 63.4145 23.8491 63.3365 24.2556 62.9266C24.6815 62.4777 24.7396 62.263 24.7396 61.0529C24.7396 59.8428 24.6815 59.6086 24.2169 59.1012ZM23.8297 62.0093C23.6942 62.5363 22.9585 62.7705 22.281 62.4582C21.797 62.2435 21.797 62.1654 21.8744 60.9944C21.9325 60.3113 22.0486 59.6477 22.1067 59.5306C22.2616 59.2768 23.1715 59.2378 23.52 59.472C23.791 59.6477 24.0039 61.3457 23.8297 62.0093Z" fill="#D09918"/>
<path d="M23.5194 59.4719C23.1709 59.2377 22.2611 59.2768 22.1062 59.5305C22.0481 59.6476 21.9319 60.3112 21.8739 60.9943C21.7964 62.1654 21.7964 62.2434 22.2804 62.4581C22.958 62.7704 23.6937 62.5362 23.8292 62.0092C24.0034 61.3456 23.7905 59.6476 23.5194 59.4719ZM23.5775 62.2434H22.2223V59.7061H23.5775V62.2434Z" fill="#D09918"/>
<path d="M36.1999 61.7948C35.6578 61.5215 35.5998 61.541 35.1739 61.9509C34.806 62.3022 34.6124 62.3608 34.264 62.2241C33.8574 62.068 33.8187 61.9509 33.8768 60.936C33.9349 59.8625 33.9542 59.804 34.4769 59.7454C34.8835 59.6869 35.0577 59.7649 35.1158 60.0382C35.1932 60.3309 35.3868 60.409 35.987 60.3895C36.7033 60.3895 36.742 60.3505 36.742 59.804C36.742 59.316 36.5871 59.1208 35.8708 58.6719C34.5931 57.9108 33.5283 57.9498 32.7152 58.7891C32.1151 59.4136 32.0957 59.4917 32.0957 60.9945V62.5755L32.8701 63.2781C33.5283 63.9027 33.7606 64.0002 34.5544 64.0002C35.3481 63.9807 35.5998 63.8831 36.2193 63.2976C37.0517 62.5169 37.0517 62.2241 36.1999 61.7948ZM35.9289 63.161C35.5998 63.5123 35.3094 63.6099 34.5931 63.6099C33.7606 63.6099 33.6057 63.5318 33.1411 62.9268C32.7539 62.3998 32.5991 61.9509 32.5216 60.975C32.4248 59.7649 32.4635 59.6478 32.9669 59.1209C33.6638 58.3792 34.6899 58.3401 35.6772 58.9647C36.045 59.2184 36.3548 59.5112 36.3548 59.6283C36.3548 60.0187 35.7353 60.1162 35.3868 59.804C34.9996 59.4527 33.8574 59.4136 33.7413 59.7454C33.7025 59.882 33.6251 60.4285 33.567 60.975C33.4896 61.6972 33.5477 62.0094 33.78 62.2827C34.1672 62.7121 34.8641 62.7316 35.2707 62.3412C35.503 62.107 35.6578 62.068 35.9676 62.2437C36.4516 62.4974 36.4516 62.595 35.9289 63.161Z" fill="#D09918"/>
<path d="M35.93 63.1605C35.6009 63.5118 35.3105 63.6094 34.5942 63.6094C33.7618 63.6094 33.6069 63.5313 33.1423 62.9263C32.7551 62.3993 32.6002 61.9504 32.5228 60.9745C32.426 59.7644 32.4647 59.6473 32.968 59.1204C33.665 58.3787 34.691 58.3397 35.6783 58.9642C36.0462 59.218 36.3559 59.5107 36.3559 59.6278C36.3559 60.0182 35.7364 60.1158 35.388 59.8035C35.0008 59.4522 33.8586 59.4131 33.7424 59.7449C33.7037 59.8815 33.6262 60.428 33.5682 60.9745C33.4907 61.6967 33.5488 62.009 33.7811 62.2822C34.1683 62.7116 34.8653 62.7311 35.2718 62.3408C35.5041 62.1066 35.659 62.0675 35.9687 62.2432C36.4527 62.4969 36.4527 62.5945 35.93 63.1605Z" fill="#D09918"/>
<path d="M10.5496 60.0187C10.4721 60.0968 10.4141 60.3505 10.4141 60.5847C10.4141 60.9751 10.5496 61.0336 11.4208 61.1117C11.9822 61.1702 12.7759 61.1702 13.1825 61.1117C13.8407 61.0336 13.9181 60.9751 13.86 60.5066C13.802 60.0187 13.7632 59.9992 12.2532 59.9406C11.382 59.9211 10.627 59.9406 10.5496 60.0187Z" fill="#444EAD"/>
<path d="M44.2351 60.039C44.1577 60.0975 44.0996 60.3512 44.0996 60.605C44.0996 61.132 44.5255 61.2686 46.2872 61.2686C47.7005 61.2686 47.9909 61.0539 47.5843 60.3122C47.4101 59.9414 47.1971 59.9023 45.8613 59.9023C45.0289 59.9023 44.2932 59.9609 44.2351 60.039Z" fill="#444EAD"/>
<path d="M21.467 22.5844C22.0636 22.5844 22.5472 22.0968 22.5472 21.4953C22.5472 20.8938 22.0636 20.4062 21.467 20.4062C20.8704 20.4062 20.3867 20.8938 20.3867 21.4953C20.3867 22.0968 20.8704 22.5844 21.467 22.5844Z" fill="#444EAD"/>
<path d="M34.8967 22.5844C35.4933 22.5844 35.9769 22.0968 35.9769 21.4953C35.9769 20.8938 35.4933 20.4062 34.8967 20.4062C34.3001 20.4062 33.8164 20.8938 33.8164 21.4953C33.8164 22.0968 34.3001 22.5844 34.8967 22.5844Z" fill="#444EAD"/>
</g>
<defs>
<clipPath id="clip0_1310_9055">
<rect width="57" height="64" fill="white"/>
</clipPath>
</defs>
</svg>
