<svg width="57" height="64" viewBox="0 0 57 64" fill="none" xmlns="http://www.w3.org/2000/svg">
<g id="Layer_1" clip-path="url(#clip0_1184_7649)">
<path id="Vector" d="M56.9537 18.2314C56.8375 17.9386 55.3856 16.8652 52.0557 14.6206C50.8167 13.7814 50.1004 13.313 48.0096 11.9858L47.0997 11.4002L47.0417 7.76998L47.0029 4.13971L46.4996 3.88598C46.2092 3.72984 45.4735 3.61274 44.6798 3.63225C42.5696 3.67129 42.6277 3.59322 42.7051 5.6816C42.8213 8.84344 43.3246 8.94103 36.5488 4.54958C33.2964 2.4612 30.2957 0.567999 29.8892 0.353306C28.9212 -0.115115 27.9145 -0.115115 27.0627 0.333789C26.6949 0.528964 20.7322 4.39344 13.8208 8.92151C6.92888 13.4496 1.21785 17.1579 1.14041 17.1579C0.811301 17.1579 0.133721 18.1338 0.0369237 18.7584C-0.0598735 19.3244 0.0175643 19.5586 0.462831 20.066C0.927458 20.5735 1.17913 20.6906 1.83735 20.7101C2.59237 20.7101 3.5797 20.1051 15.0986 12.5713C21.9518 8.08226 27.779 4.31537 28.05 4.21778C28.5147 4.02261 28.7857 4.15923 30.6636 5.38883C31.8251 6.15002 37.1683 9.60463 42.5503 13.0592C47.9322 16.5334 52.8301 19.6952 53.4496 20.1051C54.7273 20.9638 55.4243 21.0614 56.1599 20.4564C56.702 20.027 57.1473 18.7779 56.9537 18.2314ZM55.3662 20.3783C54.9209 20.4759 54.5531 20.3198 53.469 19.6171C52.7333 19.1292 49.8488 17.2555 47.061 15.4599C40.1303 10.9904 32.0187 5.74015 30.3151 4.62765C29.5407 4.12019 28.6695 3.71032 28.3985 3.71032C28.0694 3.69081 26.5787 4.54958 24.0426 6.20857C21.9325 7.59432 18.6607 9.72173 16.8022 10.9318C12.911 13.4691 9.56177 15.6746 5.61244 18.2704C2.76661 20.1441 2.36006 20.3002 1.15977 19.8709C0.52091 19.6562 0.288596 19.1097 0.540269 18.4461C0.617707 18.1923 1.64376 17.4116 2.90212 16.5919C4.10241 15.8112 6.92889 13.9766 9.17458 12.5127C13.8208 9.44849 13.8596 9.42897 19.7061 5.62304C24.1781 2.71493 26.7723 1.03642 27.508 0.626552C28.0888 0.294754 28.9019 0.314271 29.6375 0.685105C29.986 0.88028 32.4446 2.42217 35.0969 4.13971C41.6404 8.37502 42.7051 8.99958 42.8794 8.70682C42.9568 8.58971 43.0536 7.49673 43.0923 6.30616L43.1698 4.12019L44.1184 4.00309C45.1831 3.86647 46.6157 4.15923 46.6157 4.53006C46.6351 4.66668 46.6157 6.30616 46.6157 8.17984L46.5964 11.5954L47.3901 12.0834C47.816 12.3566 48.7066 12.9226 49.3648 13.352C50.023 13.7814 50.9523 14.3864 51.4556 14.7182C51.959 15.0305 53.2948 15.9673 54.4176 16.7676C56.2567 18.0752 56.4891 18.2899 56.4891 18.8169C56.4891 19.5976 56.0438 20.2222 55.3662 20.3783Z" fill="#444EAD"/>
<path id="Vector_2" d="M54.4173 16.7676C53.2945 15.9674 51.9587 15.0306 51.4553 14.7183C50.952 14.3865 50.0227 13.7815 49.3645 13.3521C48.7063 12.9227 47.8157 12.3567 47.3898 12.0834L46.5961 11.5955L46.6155 8.17992C46.6155 6.30623 46.6348 4.66676 46.6155 4.53014C46.6155 4.1593 45.1829 3.86654 44.1181 4.00316L43.1695 4.12027L43.092 6.30623C43.0533 7.4968 42.9565 8.58979 42.8791 8.70689C42.7048 8.99965 41.6401 8.37509 35.0966 4.13978C32.4443 2.42224 29.9857 0.880354 29.6372 0.685178C28.9016 0.314345 28.0885 0.294827 27.5077 0.626625C26.772 1.03649 24.1779 2.715 19.7058 5.62312C13.8593 9.42904 13.8206 9.44856 9.1743 12.5128C6.9286 13.9766 4.10212 15.8113 2.90184 16.592C1.64348 17.4117 0.617425 18.1924 0.539987 18.4461C0.288315 19.1097 0.520628 19.6562 1.15949 19.8709C2.35977 20.3003 2.76632 20.1442 5.61216 18.2705C9.56149 15.6747 12.9107 13.4692 16.8019 10.9319C18.6604 9.7218 21.9322 7.59439 24.0423 6.20864C26.5784 4.54965 28.0691 3.69088 28.3982 3.7104C28.6693 3.7104 29.5404 4.12027 30.3148 4.62772C32.0184 5.74022 40.13 10.9904 47.0607 15.46C49.8485 17.2556 52.733 19.1293 53.4687 19.6172C54.5528 20.3198 54.9207 20.476 55.3659 20.3784C56.0435 20.2222 56.4888 19.5977 56.4888 18.817C56.4888 18.29 56.2565 18.0753 54.4173 16.7676ZM44.1568 10.4635C43.3824 9.9365 42.7436 9.40952 42.7436 9.2729C42.7436 9.13628 42.8016 9.13628 42.8984 9.25338C42.9759 9.35097 43.6728 9.87794 44.4472 10.4244C45.2409 10.9514 45.9185 11.4784 45.9766 11.576C46.1121 11.7907 45.9572 11.6931 44.1568 10.4635Z" fill="#444EAD"/>
<path id="Vector_3" d="M44.1569 10.4633C43.3825 9.93637 42.7437 9.4094 42.7437 9.27277C42.7437 9.13615 42.8017 9.13615 42.8985 9.25325C42.976 9.35084 43.6729 9.87782 44.4473 10.4243C45.241 10.9513 45.9186 11.4783 45.9767 11.5758C46.1122 11.7905 45.9573 11.6929 44.1569 10.4633Z" fill="#444EAD"/>
<path id="Vector_4" d="M24.8361 17.5677C24.1392 17.4896 23.5197 17.4701 23.4616 17.5287C23.4035 17.5872 21.8741 17.6263 20.035 17.6458H16.7052L15.9889 18.1923C15.0015 18.973 14.2659 20.3197 14.2272 21.5298C14.1884 22.4081 14.2465 22.5252 14.7112 22.7594C15.4275 23.1107 16.5309 24.4769 16.6665 25.1405C16.8407 25.9993 17.344 26.3896 18.041 26.253C18.3701 26.1749 20.6739 26.0774 23.1519 26.0188L27.6626 25.9212L27.7401 23.4425C27.8562 20.6124 27.953 19.5975 28.1272 19.3048C28.4951 18.7192 26.7721 17.8019 24.8361 17.5677ZM27.7013 19.9489C27.6626 20.5149 27.5465 21.5493 27.4303 22.2714C27.3335 22.9936 27.2561 24.028 27.2561 24.555V25.5504L25.1846 25.5894C24.023 25.6089 22.8421 25.648 22.513 25.6675C22.2033 25.687 20.8868 25.726 19.6285 25.7651L17.3247 25.8432L17.0536 25.082C16.7052 24.0671 16.0082 23.1497 15.1371 22.6032C14.4788 22.1934 14.4401 22.1348 14.5563 21.4322C14.7886 19.9879 15.7566 18.5826 16.802 18.1532C17.073 18.0556 19.1832 17.9776 21.6418 17.9971C25.8041 18.0361 26.0364 18.0556 26.8882 18.485L27.7788 18.9535L27.7013 19.9489Z" fill="#D29916"/>
<path id="Vector_5" d="M27.7789 18.9535L27.7015 19.9489C27.6628 20.5149 27.5466 21.5493 27.4305 22.2715C27.3337 22.9936 27.2562 24.0281 27.2562 24.555V25.5504L25.1848 25.5895C24.0232 25.609 22.8423 25.648 22.5132 25.6675C22.2034 25.6871 20.887 25.7261 19.6286 25.7651L17.3248 25.8432L17.0538 25.082C16.7053 24.0671 16.0084 23.1498 15.1372 22.6033C14.479 22.1934 14.4403 22.1349 14.5564 21.4322C14.7888 19.9879 15.7567 18.5827 16.8021 18.1533C17.0732 18.0557 19.1834 17.9776 21.642 17.9972C25.8043 18.0362 26.0366 18.0557 26.8884 18.4851L27.7789 18.9535Z" fill="#D29916"/>
<path id="Vector_6" d="M41.2917 18.6607C40.4399 17.8215 39.8979 17.7434 34.5159 17.7434C30.857 17.7629 30.373 17.802 29.618 18.1533C28.8049 18.5436 28.7855 18.5631 28.9404 19.2658C29.0179 19.6561 29.0759 21.198 29.0372 22.7009C29.0179 24.1842 29.0372 25.5504 29.0953 25.7261C29.1727 25.9993 29.4631 26.0188 31.2636 25.9603C34.6515 25.8237 36.781 25.8822 37.7102 26.136C39.472 26.6239 39.5881 26.6044 39.7236 25.7066C39.8979 24.6136 41.0207 23.2669 41.8919 23.0912L42.5501 22.9741V21.8421C42.5501 20.4563 42.1823 19.539 41.2917 18.6607ZM41.6015 22.7789C40.7497 23.0717 39.4913 24.555 39.3558 25.3943C39.2784 25.8042 39.1622 26.136 39.0848 26.136C39.0073 26.136 38.4653 25.9993 37.8845 25.8237C36.8778 25.5114 35.7549 25.4724 31.341 25.5309C30.3343 25.5504 29.5018 25.5309 29.4631 25.4919C29.4438 25.4724 29.3857 23.95 29.3663 22.1349L29.3276 18.8169L29.9858 18.4656C30.586 18.1338 31.0893 18.1142 35.3871 18.1923C38.3878 18.2313 40.3044 18.3485 40.5561 18.4851C40.769 18.6022 41.2337 19.1292 41.5628 19.6171C42.0468 20.3588 42.1629 20.7491 42.1629 21.5688C42.1629 22.5057 42.1242 22.6033 41.6015 22.7789Z" fill="#D29916"/>
<path id="Vector_7" d="M42.1629 21.569C42.1629 22.5058 42.1242 22.6034 41.6015 22.779C40.7497 23.0718 39.4913 24.5551 39.3558 25.3944C39.2784 25.8043 39.1622 26.1361 39.0848 26.1361C39.0074 26.1361 38.4653 25.9994 37.8845 25.8238C36.8778 25.5115 35.755 25.4725 31.341 25.531C30.3343 25.5505 29.5019 25.531 29.4632 25.492C29.4438 25.4725 29.3857 23.9501 29.3664 22.135L29.3276 18.817L29.9859 18.4657C30.586 18.1339 31.0893 18.1143 35.3871 18.1924C38.3879 18.2314 40.3044 18.3486 40.5561 18.4852C40.7691 18.6023 41.2337 19.1293 41.5628 19.6172C42.0468 20.3589 42.1629 20.7492 42.1629 21.569Z" fill="#D29916"/>
<path id="Vector_8" d="M50.5648 20.4368C50.1776 20.0854 49.5194 19.656 49.1128 19.4609C48.6869 19.2852 48.2997 18.9925 48.2417 18.8168C47.9706 18.1142 47.6415 18.5631 47.5254 19.7732C47.3898 21.276 47.5447 22.4275 47.9125 22.5642C48.4159 22.7593 49.1322 24.3012 49.2483 25.4723C49.4226 27.1703 49.0547 28.6732 48.1836 29.7857L47.4673 30.7225L47.6028 32.2839C47.6802 33.1427 47.7577 36.3826 47.7577 39.4859L47.777 45.1265L38.0586 45.0093C32.696 44.9313 24.0424 44.8727 18.7959 44.8727H9.29046L9.21302 37.983C9.1743 32.6157 9.21302 31.0738 9.38726 30.9567C9.75508 30.7225 9.69701 30.2346 9.29046 30.2346C8.39992 30.2346 7.72234 28.6536 7.70298 26.5262C7.70298 24.8868 8.20633 23.1302 8.86455 22.5837C9.1743 22.33 9.25174 22.0372 9.25174 21.0223C9.25174 19.5389 9.05814 18.3289 8.84519 18.3289C8.76775 18.3289 8.43864 18.6411 8.14825 19.0315C7.85786 19.4023 7.19964 19.9293 6.71565 20.183C5.55409 20.7881 5.30241 21.1003 5.45729 21.8811C5.51537 22.2324 5.57344 27.7949 5.5928 34.2357C5.61216 47.3124 5.61216 47.2343 6.92861 48.1322L7.56747 48.5811L28.5337 48.5225L49.5 48.4835L50.197 47.8004C50.5648 47.4295 50.9713 46.8245 51.0681 46.4341C51.1843 46.0243 51.2617 40.9107 51.2617 33.3964V21.0418L50.5648 20.4368ZM50.8358 33.7672L50.7777 46.1414L50.3325 46.883C50.0808 47.2734 49.6743 47.7223 49.4613 47.8589C48.8805 48.1907 7.81914 48.1322 7.19964 47.7808C6.96732 47.6637 6.63821 47.2539 6.44462 46.8635C6.11551 46.1999 6.07679 45.3216 6.03807 35.4067C5.99935 29.4929 5.96063 23.9499 5.94127 23.0521C5.92191 22.0177 5.97999 21.3541 6.13487 21.1979C6.5995 20.7295 8.38056 19.5389 8.57416 19.5975C8.69032 19.617 8.76775 20.1635 8.76775 20.8076C8.76775 21.6468 8.67096 22.1153 8.43864 22.369C7.78042 23.0911 7.31579 24.7892 7.31579 26.4286C7.31579 28.3218 7.54811 29.2392 8.22569 30.0589C8.67096 30.5664 8.74839 30.8786 8.76775 31.874C8.76775 32.5181 8.78711 35.6995 8.82583 38.9199C8.84519 42.1403 8.94199 44.8922 9.01943 45.0289C9.15494 45.224 13.0462 45.3021 28.3401 45.3802C44.9893 45.4778 47.5254 45.4583 47.8545 45.224C48.2029 44.9508 48.2223 44.6385 48.2029 40.169C48.1836 37.5536 48.1255 34.3918 48.0481 33.1232C47.9319 30.9177 47.9319 30.8396 48.4159 30.1955C49.5581 28.6341 49.9453 27.0727 49.6162 25.1405C49.4226 23.8718 49.0741 23.1497 48.3191 22.3885C47.99 22.0567 47.9125 21.7444 47.9125 20.8271C47.9319 20.183 47.9706 19.617 48.0287 19.578C48.1836 19.4023 49.9646 20.3977 50.4486 20.9052L50.8939 21.3931L50.8358 33.7672Z" fill="#444EAD"/>
<path id="Vector_9" d="M50.8942 21.3933L50.8361 33.7674L50.778 46.1415L50.3328 46.8832C50.0811 47.2735 49.6746 47.7224 49.4616 47.8591C48.8808 48.1909 7.81945 48.1323 7.19994 47.781C6.96763 47.6639 6.63852 47.254 6.44493 46.8637C6.11582 46.2001 6.0771 45.3218 6.03838 35.4069C5.99966 29.4931 5.96094 23.9501 5.94158 23.0523C5.92222 22.0178 5.9803 21.3542 6.13518 21.1981C6.5998 20.7297 8.38087 19.5391 8.57447 19.5977C8.69062 19.6172 8.76806 20.1637 8.76806 20.8077C8.76806 21.647 8.67126 22.1154 8.43895 22.3692C7.78073 23.0913 7.3161 24.7893 7.3161 26.4288C7.3161 28.322 7.54841 29.2393 8.226 30.0591C8.67126 30.5665 8.7487 30.8788 8.76806 31.8742C8.76806 32.5183 8.78742 35.6996 8.82614 38.92C8.8455 42.1404 8.94229 44.8924 9.01973 45.029C9.15525 45.2242 13.0465 45.3023 28.3405 45.3803C44.9896 45.4779 47.5257 45.4584 47.8548 45.2242C48.2032 44.951 48.2226 44.6387 48.2032 40.1692C48.1839 37.5538 48.1258 34.392 48.0484 33.1233C47.9322 30.9178 47.9322 30.8398 48.4162 30.1957C49.5584 28.6343 49.9456 27.0729 49.6165 25.1406C49.4229 23.872 49.0744 23.1499 48.3194 22.3887C47.9903 22.0569 47.9128 21.7446 47.9128 20.8273C47.9322 20.1832 47.9709 19.6172 48.029 19.5781C48.1839 19.4025 49.9649 20.3979 50.4489 20.9053L50.8942 21.3933Z" fill="#444EAD"/>
<path id="Vector_10" d="M46.8481 24.3793C46.248 23.7547 45.9382 23.6181 45.0283 23.501C43.2085 23.2668 42.5503 23.6376 41.292 25.5113C40.7499 26.331 40.7499 26.3505 40.8661 28.5365C40.9241 29.7271 40.9048 31.1128 40.8273 31.5617C40.5176 33.1817 41.4081 33.0646 28.689 33.0841C22.4746 33.1036 17.325 33.0255 17.2669 32.9475C17.2088 32.8499 17.0152 32.7718 16.841 32.7718C16.1053 32.7718 15.9311 32.0497 16.0085 29.0049C16.0472 27.2483 15.9892 26.1359 15.873 26.1359C15.7762 26.1359 15.5052 25.7065 15.2729 25.16C14.9631 24.4378 14.6727 24.106 14.1307 23.8133C13.3369 23.4229 11.5365 23.1887 10.8008 23.3839C10.0652 23.579 9.40696 24.9453 9.2908 26.5262C9.21337 27.7558 9.23273 27.8534 9.73607 28.2437C10.0265 28.478 10.5492 28.7122 10.8976 28.7902C11.4978 28.8878 11.5365 28.9659 11.6527 29.9027C11.7301 30.4687 11.7688 32.0887 11.7495 33.5135C11.7107 36.0703 11.7107 36.1288 12.2141 36.6168L12.6981 37.1242L28.3599 37.2218C43.7119 37.3194 44.0023 37.2999 44.4669 36.9291C44.9315 36.5582 44.9315 36.4606 44.8928 34.1771C44.8735 32.8694 44.9122 31.1909 44.9896 30.4297C45.1058 29.1806 45.1638 29.0635 45.551 29.0635C46.6352 29.0635 47.5838 27.6387 47.5838 26.0187C47.5838 25.238 47.487 25.0233 46.8481 24.3793ZM45.5317 28.6731L44.7379 29.0244L44.6218 30.6444C44.5443 31.5422 44.4863 33.2207 44.4863 34.3723C44.4863 36.2655 44.4475 36.4802 44.0991 36.6753C43.828 36.812 38.9882 36.851 28.3018 36.7924C14.0532 36.7144 12.8723 36.6753 12.5238 36.363C12.1947 36.0703 12.156 35.719 12.1366 33.1817C12.1366 29.4343 12.0205 28.8488 11.2848 28.517C9.69735 27.8339 9.73607 27.8729 9.75543 26.5067C9.77479 25.1014 10.1813 24.067 10.8589 23.7937C11.3623 23.5791 12.9885 23.7547 13.8209 24.0865C14.2662 24.2622 14.5566 24.6135 14.8663 25.2771C15.0986 25.804 15.389 26.3896 15.4858 26.5848C15.5826 26.7799 15.6407 28.1266 15.6213 29.5514C15.5826 31.874 15.6213 32.2253 15.9311 32.5766C16.7248 33.4744 16.7055 33.4745 28.4179 33.5135C39.0463 33.5525 39.5883 33.533 40.1498 33.1817C41.2145 32.5376 41.3694 31.9326 41.292 28.9073L41.2145 26.2334L41.8921 25.2185C42.7246 23.9889 43.3634 23.6962 44.8347 23.8718C45.7059 23.9694 46.0737 24.1255 46.5771 24.633C47.1966 25.2185 47.2353 25.3161 47.1579 26.3701C47.0611 27.6582 46.7126 28.1657 45.5317 28.6731Z" fill="#D29916"/>
<path id="Vector_11" d="M47.1579 26.3702C47.0611 27.6583 46.7126 28.1658 45.5317 28.6733L44.738 29.0246L44.6218 30.6445C44.5444 31.5423 44.4863 33.2208 44.4863 34.3724C44.4863 36.2656 44.4476 36.4803 44.0991 36.6754C43.8281 36.8121 38.9882 36.8511 28.3018 36.7926C14.0532 36.7145 12.8723 36.6754 12.5239 36.3632C12.1947 36.0704 12.156 35.7191 12.1367 33.1818C12.1367 29.4344 12.0205 28.8489 11.2848 28.5171C9.69737 27.834 9.73609 27.873 9.75545 26.5068C9.77481 25.1015 10.1814 24.0671 10.8589 23.7939C11.3623 23.5792 12.9885 23.7548 13.8209 24.0866C14.2662 24.2623 14.5566 24.6136 14.8663 25.2772C15.0987 25.8042 15.389 26.3897 15.4858 26.5849C15.5826 26.7801 15.6407 28.1268 15.6214 29.5515C15.5826 31.8741 15.6214 32.2254 15.9311 32.5768C16.7249 33.4746 16.7055 33.4746 28.418 33.5136C39.0463 33.5526 39.5884 33.5331 40.1498 33.1818C41.2145 32.5377 41.3694 31.9327 41.292 28.9075L41.2145 26.2336L41.8921 25.2186C42.7246 23.989 43.3634 23.6963 44.8348 23.8719C45.7059 23.9695 46.0738 24.1257 46.5771 24.6331C47.1966 25.2186 47.2353 25.3162 47.1579 26.3702Z" fill="#D29916"/>
<path id="Vector_12" d="M26.4044 27.1509C25.6494 27.1509 23.2875 27.2484 21.1773 27.3265C19.0478 27.4241 17.3054 27.5217 17.3054 27.5412C17.2861 27.5802 17.3054 28.5171 17.3442 29.6491L17.4216 31.6984L27.6821 31.6204L27.7402 29.3759L27.7983 27.1118L26.4044 27.1509ZM27.3143 29.4539C27.3143 30.4688 27.2368 31.2886 27.1788 31.2495C27.1207 31.23 24.9911 31.2105 22.4357 31.2105H17.8282L17.6926 29.7077C17.6346 28.8879 17.6539 28.1267 17.7507 28.0291C17.9056 27.873 24.1587 27.5412 26.2882 27.5802L27.353 27.5998L27.3143 29.4539Z" fill="#D29916"/>
<path id="Vector_13" d="M27.3532 27.5998L27.3145 29.454C27.3145 30.4689 27.237 31.2887 27.179 31.2496C27.1209 31.2301 24.9913 31.2106 22.4359 31.2106H17.8283L17.6928 29.7077C17.6347 28.888 17.6541 28.1268 17.7509 28.0292C17.9058 27.8731 24.1589 27.5413 26.2884 27.5803L27.3532 27.5998Z" fill="#D29916"/>
<path id="Vector_14" d="M39.6269 31.2691C39.472 31.0934 39.4333 30.5079 39.5301 29.4539C39.6075 28.4585 39.5882 27.873 39.4526 27.7949C39.3365 27.7169 37.8845 27.5802 36.2003 27.5022C34.5353 27.4046 32.2703 27.268 31.1862 27.1899C30.0827 27.1118 29.1921 27.0923 29.1921 27.1313C29.1921 27.1704 29.1341 28.2438 29.0953 29.5125L28.9985 31.8155L31.6701 31.796C33.1221 31.7765 35.5614 31.718 37.0714 31.6594C39.3946 31.5618 39.8011 31.5033 39.6269 31.2691ZM39.1429 29.7662L39.0074 31.3081L29.3276 31.4252L29.4632 30.2151C29.5212 29.5515 29.5793 28.6732 29.5793 28.2634C29.5793 27.5998 29.6374 27.5022 30.0246 27.5217C30.2569 27.5217 32.3864 27.6388 34.7483 27.7754C37.1295 27.912 39.1042 28.0682 39.1622 28.1072C39.201 28.1658 39.201 28.9074 39.1429 29.7662Z" fill="#D29916"/>
<path id="Vector_15" d="M39.1429 29.7663L39.0074 31.3082L29.3276 31.4253L29.4632 30.2152C29.5212 29.5516 29.5793 28.6733 29.5793 28.2634C29.5793 27.5998 29.6374 27.5022 30.0246 27.5218C30.2569 27.5218 32.3864 27.6389 34.7483 27.7755C37.1295 27.9121 39.1042 28.0683 39.1622 28.1073C39.2009 28.1658 39.201 28.9075 39.1429 29.7663Z" fill="#D29916"/>
<path id="Vector_16" d="M14.6533 38.2368L14.7114 39.9348L14.7695 41.6524L17.4411 41.7109L20.0933 41.7695V38.2368H14.6533ZM19.7061 41.3206L17.596 41.3011C16.4344 41.2816 15.4083 41.2035 15.3309 41.1254C15.1567 40.9302 15.0792 39.7787 15.2147 39.1151C15.2664 38.7898 16.0278 38.6272 17.4992 38.6272H19.7061V41.3206Z" fill="#444EAD"/>
<path id="Vector_17" d="M19.7059 38.6272V41.3206L17.5957 41.3011C16.4342 41.2816 15.4081 41.2035 15.3307 41.1254C15.1564 40.9303 15.079 39.7787 15.2145 39.1151C15.2661 38.7898 16.0276 38.6272 17.4989 38.6272H19.7059Z" fill="#444EAD"/>
<path id="Vector_18" d="M36.355 38.2368V41.75H41.7756V38.2368H36.355ZM39.0653 41.3401L36.7422 41.3791V40.4423C36.7422 38.5881 36.6841 38.6467 39.1427 38.6857L41.2916 38.7248L41.3497 40.0129L41.4078 41.3206L39.0653 41.3401Z" fill="#444EAD"/>
<path id="Vector_19" d="M41.4079 41.3206L39.0654 41.3401L36.7423 41.3791V40.4423C36.7423 38.5881 36.6842 38.6467 39.1429 38.6857L41.2918 38.7247L41.3499 40.0129L41.4079 41.3206Z" fill="#444EAD"/>
<path id="Vector_20" d="M49.597 49.8694C49.1517 49.4205 48.6097 49.479 48.2612 50.0255C47.661 50.9233 48.7452 51.9187 49.5389 51.1966C49.9842 50.7867 50.0035 50.2792 49.597 49.8694ZM49.4615 50.6501C49.384 50.9819 49.3453 50.9819 49.2292 50.572C49.1517 50.3378 48.9581 50.1426 48.8226 50.1426C48.4935 50.1426 48.4548 50.8648 48.8033 50.9819C48.9388 51.0209 48.9194 51.0404 48.7452 51.0404C48.3193 51.0014 48.2612 50.2988 48.6677 50.006C48.9581 49.7913 49.0549 49.7913 49.2872 50.0255C49.4421 50.1621 49.5196 50.4549 49.4615 50.6501Z" fill="black"/>
<path id="Vector_21" d="M21.8744 55.2171C21.6033 55.2171 21.4291 54.9243 21.1774 54.085C20.9838 53.48 20.6934 52.6993 20.5192 52.387C20.3643 52.0552 20.2482 51.4697 20.2675 51.0598L20.3062 50.3377L19.377 50.3182C18.8737 50.2986 18.2541 50.2596 18.0025 50.2401C17.7702 50.2206 17.5379 50.2596 17.4798 50.3377C17.4411 50.4157 17.4217 50.9037 17.4411 51.4307C17.4604 51.9771 17.3443 52.7383 17.1507 53.1677C16.9764 53.5971 16.7248 54.2412 16.6086 54.573C16.4537 54.9828 16.2408 55.2171 16.0085 55.2171C15.7181 55.2171 15.6406 55.3732 15.6406 55.9978V56.7589H18.3509V56.0758C18.3509 55.4513 18.3897 55.4122 18.9898 55.4122C19.5899 55.4122 19.6287 55.4317 19.5512 56.0953L19.4738 56.7785H22.2228V55.9978C22.2228 55.3732 22.1454 55.2171 21.8744 55.2171ZM20.7709 56.0953C20.3256 56.0953 20.132 55.9587 19.9384 55.5489C19.7255 55.1195 19.5512 55.0219 18.9704 55.0219C18.1574 55.0219 17.654 55.2756 17.8476 55.5684C18.0412 55.9002 17.3443 56.1734 16.8216 55.9782L16.3569 55.8026L16.7635 55.3537C17.1119 54.9828 17.2668 54.573 17.7121 52.7188C17.7702 52.4846 17.9057 52.2894 18.0025 52.2894C18.0993 52.2894 18.138 52.1138 18.0606 51.8991C17.7895 51.0598 18.409 50.6499 19.4157 50.9817C19.6674 51.0598 19.8223 51.3135 19.861 51.6063C19.8803 51.8796 20.2095 52.8554 20.5966 53.7923C21.4872 55.9978 21.4872 56.0953 20.7709 56.0953Z" fill="#444EAD"/>
<path id="Vector_22" d="M20.5967 53.7923C20.2095 52.8555 19.8804 51.8796 19.861 51.6064C19.8223 51.3136 19.6674 51.0599 19.4157 50.9818C18.409 50.65 17.7895 51.0599 18.0606 51.8991C18.138 52.1138 18.0993 52.2895 18.0025 52.2895C17.9057 52.2895 17.7702 52.4846 17.7121 52.7189C17.2668 54.573 17.112 54.9829 16.7635 55.3537L16.3569 55.8026L16.8216 55.9783C17.3443 56.1735 18.0412 55.9002 17.8476 55.5684C17.654 55.2757 18.1574 55.0219 18.9705 55.0219C19.5512 55.0219 19.7255 55.1195 19.9384 55.5489C20.132 55.9588 20.3256 56.0954 20.7709 56.0954C21.4872 56.0954 21.4872 55.9978 20.5967 53.7923ZM19.4157 53.6557C19.3576 53.7728 19.0866 53.8509 18.8349 53.8509C18.1961 53.8509 18.0799 53.5776 18.4478 52.875C18.6026 52.5627 18.7962 52.2895 18.8349 52.2895C19.0285 52.2895 19.5125 53.48 19.4157 53.6557Z" fill="#444EAD"/>
<path id="Vector_23" d="M29.2697 55.4123C28.9794 55.4123 28.96 55.2366 29.0955 53.6167C29.1729 52.6213 29.2891 51.7625 29.3859 51.704C29.5601 51.5869 29.7537 50.3377 29.5989 50.2792C29.5408 50.2597 28.9794 50.2597 28.3792 50.2987L27.2757 50.3573L26.7337 51.5088C26.1529 52.7579 25.998 52.8945 25.8044 52.2895C25.727 52.0748 25.4559 51.5478 25.1655 51.1184C24.6816 50.3573 24.6428 50.3377 23.5394 50.3377H22.4165L22.552 50.9623C22.6101 51.3136 22.7456 51.6649 22.8424 51.7235C23.0941 51.8796 23.0941 55.2171 22.8618 55.3733C22.7456 55.4513 22.6682 55.8222 22.6875 56.193C22.7069 56.8176 22.765 56.8761 23.3845 56.9347C23.7329 56.9737 24.3331 56.9542 24.6816 56.8761C25.2623 56.7785 25.3204 56.7005 25.3204 56.0954C25.3204 55.627 25.2236 55.4123 25.03 55.4123C24.8558 55.4123 24.7396 55.2366 24.7396 54.9244C24.7396 54.3583 25.0494 54.2803 25.2236 54.8073C25.2817 55.0024 25.514 55.3342 25.727 55.5294C26.1722 55.9393 26.211 55.9002 27.1015 54.6121L27.4306 54.1437V54.7682C27.45 55.2171 27.3532 55.4123 27.1596 55.4123C26.9466 55.4123 26.8692 55.627 26.8692 56.0954V56.798L28.1856 56.7395L29.4827 56.6809L29.5408 56.0369C29.5989 55.5489 29.5214 55.4123 29.2697 55.4123ZM28.7277 55.0219C28.96 56.1344 28.747 56.5248 28.0307 56.2906C27.6048 56.154 27.5855 56.0954 27.6436 54.9048C27.6823 53.8704 27.4112 53.6947 26.8305 54.3779C26.269 55.061 25.8431 55.061 25.3204 54.3779C25.0881 54.0851 24.8364 53.8509 24.759 53.8509C24.5073 53.8509 24.3524 55.2562 24.546 55.5294C24.8364 55.8612 24.5654 56.3687 24.0427 56.5053C23.4232 56.6614 23.2102 56.4662 23.3264 55.8417C23.5006 55.0415 23.5006 52.2505 23.3458 51.8015C23.2683 51.5869 23.2683 51.2941 23.3651 51.138C23.6749 50.65 24.4686 51.0794 25.2236 52.0943C25.6108 52.6213 26.0174 53.0702 26.1142 53.0702C26.211 53.0702 26.5981 52.5823 26.9853 52.0162C27.5855 51.0989 27.8371 50.8647 28.4179 50.7476C28.476 50.7476 28.6115 50.8062 28.747 50.8842C28.9019 50.9818 28.9213 51.3917 28.747 52.5432C28.5922 53.5972 28.5922 54.3388 28.7277 55.0219Z" fill="#444EAD"/>
<path id="Vector_24" d="M28.7273 55.0219C28.9596 56.1344 28.7467 56.5248 28.0304 56.2905C27.6045 56.1539 27.5851 56.0954 27.6432 54.9048C27.6819 53.8704 27.4109 53.6947 26.8301 54.3778C26.2687 55.0609 25.8428 55.0609 25.3201 54.3778C25.0878 54.0851 24.8361 53.8508 24.7587 53.8508C24.507 53.8508 24.3521 55.2561 24.5457 55.5294C24.8361 55.8612 24.5651 56.3686 24.0424 56.5052C23.4228 56.6614 23.2099 56.4662 23.3261 55.8416C23.5003 55.0414 23.5003 52.2504 23.3454 51.8015C23.268 51.5868 23.268 51.2941 23.3648 51.1379C23.6745 50.65 24.4683 51.0794 25.2233 52.0943C25.6105 52.6212 26.017 53.0701 26.1138 53.0701C26.2106 53.0701 26.5978 52.5822 26.985 52.0162C27.5851 51.0989 27.8368 50.8647 28.4176 50.7476C28.4757 50.7476 28.6112 50.8061 28.7467 50.8842C28.9016 50.9818 28.9209 51.3916 28.7467 52.5432C28.5918 53.5971 28.5918 54.3388 28.7273 55.0219Z" fill="#444EAD"/>
<path id="Vector_25" d="M13.4529 52.6993C13.5303 52.9725 13.6852 53.0115 14.2466 52.9335C14.6532 52.8944 15.0791 52.8164 15.2146 52.7578C15.6599 52.6212 15.4469 52.0161 14.6338 51.1769C13.8594 50.3767 13.7627 50.3376 12.7366 50.3572C11.7686 50.3572 11.6138 50.4352 10.9749 51.0793C10.2973 51.7819 10.2586 51.86 10.1618 53.6361C10.0456 55.4122 10.065 55.4903 10.5296 55.9392C11.2846 56.6418 11.6718 56.7784 12.8721 56.7784C13.9175 56.7784 14.0724 56.7199 14.6532 56.1148L15.3114 55.4317L14.6532 54.7486C13.8788 53.9094 13.7627 53.8898 13.4723 54.5339C13.2593 55.0219 12.8721 55.139 12.272 54.9047C11.8461 54.7486 11.8461 52.8359 12.2526 52.426C12.6011 52.0552 13.3367 52.2308 13.4529 52.6993ZM11.4589 53.8118C11.5363 54.3973 11.7106 54.9828 11.8461 55.139C12.1752 55.4512 13.1819 55.4903 13.7239 55.217C14.0143 55.0414 14.1305 55.0804 14.2079 55.3146C14.4015 55.783 13.7239 56.1734 12.6979 56.1929C11.9041 56.1929 11.6912 56.0953 11.2072 55.5879C10.6071 54.9633 10.5683 54.6315 10.9168 52.3479C11.1298 50.9817 13.0851 50.3962 14.0337 51.4306C14.6338 52.0747 14.3628 52.4065 13.5884 51.9966C12.756 51.5672 12.2333 51.6453 11.7686 52.2308C11.4008 52.6993 11.3621 52.9335 11.4589 53.8118Z" fill="#444EAD"/>
<path id="Vector_26" d="M11.7685 52.2308C11.4007 52.6993 11.3619 52.9335 11.4587 53.8118C11.5362 54.3973 11.7104 54.9828 11.8459 55.139C12.175 55.4512 13.1817 55.4903 13.7238 55.217C14.0142 55.0414 14.1303 55.0804 14.2078 55.3146C14.4014 55.783 13.7238 56.1734 12.6977 56.1929C11.904 56.1929 11.691 56.0953 11.2071 55.5879C10.6069 54.9633 10.5682 54.6315 10.9167 52.3479C11.1296 50.9817 13.0849 50.3962 14.0335 51.4306C14.6337 52.0747 14.3626 52.4065 13.5883 51.9966C12.7558 51.5672 12.2331 51.6453 11.7685 52.2308Z" fill="#444EAD"/>
<path id="Vector_27" d="M35.2127 51.2745C34.5932 50.3962 34.419 50.3376 32.1539 50.3376H30.3535V51.0012C30.3535 51.3721 30.4503 51.7039 30.5665 51.7429C30.702 51.7819 30.8181 52.5236 30.8762 53.519C30.973 54.9633 30.9343 55.2366 30.6633 55.3341C30.4503 55.4122 30.3535 55.6855 30.3535 56.2319V56.9931L31.67 56.9346L32.967 56.876L33.0251 56.1344C33.0638 55.5879 33.0251 55.4122 32.7928 55.4122C32.6186 55.4122 32.4831 55.3341 32.4831 55.2366C32.4831 55.139 32.9283 55.0219 33.4704 54.9828C34.7481 54.8462 35.387 54.2412 35.5806 52.9335C35.7161 52.1137 35.6774 51.9186 35.2127 51.2745ZM33.3349 54.5144C32.4831 54.7291 32.3863 54.8072 32.3669 55.3341C32.3088 56.6028 32.3282 56.5833 31.6119 56.5833C31.0311 56.5833 30.9343 56.5247 30.9343 56.1344C30.9343 55.8806 31.0311 55.5879 31.1666 55.4512C31.457 55.1585 31.4376 52.2894 31.1279 51.7039C30.7601 51.0208 31.1473 50.8061 32.696 50.8451C34.0125 50.8646 34.1286 50.9037 34.6513 51.4892C35.6967 52.6602 35.0772 54.0655 33.3349 54.5144Z" fill="#444EAD"/>
<path id="Vector_28" d="M34.6516 51.4893C34.1289 50.9038 34.0127 50.8647 32.6963 50.8452C31.1475 50.8062 30.7603 51.0209 31.1282 51.704C31.4379 52.2895 31.4573 55.1586 31.1669 55.4514C31.0314 55.588 30.9346 55.8808 30.9346 56.1345C30.9346 56.5248 31.0314 56.5834 31.6122 56.5834C32.3285 56.5834 32.3091 56.6029 32.3672 55.3343C32.3865 54.8073 32.4833 54.7292 33.3351 54.5145C35.0775 54.0656 35.697 52.6604 34.6516 51.4893ZM34.0514 53.2654C33.8772 53.5387 32.5801 53.6362 32.3478 53.3825C32.1155 53.1483 32.2317 52.0553 32.5027 51.8797C33.4707 51.2551 34.6516 52.2895 34.0514 53.2654Z" fill="#444EAD"/>
<path id="Vector_29" d="M32.5026 51.8796C32.2315 52.0553 32.1154 53.1482 32.3477 53.3825C32.58 53.6362 33.8771 53.5386 34.0513 53.2653C34.6515 52.2895 33.4706 51.255 32.5026 51.8796ZM33.1995 53.2263C32.8511 53.2653 32.6381 53.1873 32.5607 52.9921C32.3477 52.4456 32.6381 52.0553 33.1995 52.1333C33.6254 52.1724 33.7416 52.2895 33.7416 52.6798C33.7416 53.0702 33.6254 53.1873 33.1995 53.2263Z" fill="#444EAD"/>
<path id="Vector_30" d="M39.4527 50.3376V51.0208C39.4527 51.3916 39.5495 51.7039 39.6463 51.7039C39.7818 51.7039 39.8399 52.2894 39.8012 53.3043C39.7431 54.8462 39.7238 54.9243 39.2785 54.9828C38.9881 55.0414 38.6977 54.9243 38.5428 54.7096C38.2137 54.2607 38.1944 51.9186 38.5428 51.8015C38.659 51.7429 38.7751 51.3916 38.7945 51.0208L38.8139 50.3376H36.1616V51.0208C36.1616 51.4306 36.2778 51.7624 36.4327 51.821C36.6456 51.8991 36.7037 52.387 36.723 53.8118C36.7424 55.6464 36.7618 55.705 37.3232 56.2319C38.4073 57.2273 40.0529 57.1883 41.1564 56.1344C41.5694 55.731 41.7759 54.8917 41.7759 53.6166C41.7759 52.1528 41.8339 51.7039 42.0275 51.7429C42.3179 51.821 42.3566 51.7039 42.3566 50.9232V50.3376H39.4527ZM41.4274 51.3135C41.3887 51.5868 41.3306 52.4651 41.3112 53.2653C41.2725 54.0655 41.2338 54.8267 41.2144 54.9633C41.2144 55.0804 40.9628 55.4512 40.6917 55.783C40.0916 56.5052 39.1236 56.6028 38.1556 55.9977C37.3425 55.5098 37.1877 55.1585 37.149 53.7532C37.149 53.1091 37.0715 52.2113 37.0134 51.7429C36.8973 50.9622 36.9166 50.9232 37.3813 50.9232C37.904 50.9232 38.2524 51.4892 37.9814 51.9186C37.7491 52.3089 37.904 54.4363 38.2137 54.9048C38.5622 55.4708 39.3172 55.6464 39.8206 55.2951C40.2852 54.9633 40.5175 53.2653 40.2465 52.1137C39.9948 50.9817 40.1303 50.689 40.8853 50.767C41.408 50.8256 41.4855 50.9037 41.4274 51.3135Z" fill="#444EAD"/>
<path id="Vector_31" d="M41.4273 51.3137C41.3886 51.5869 41.3305 52.4652 41.3112 53.2654C41.2724 54.0657 41.2337 54.8269 41.2144 54.9635C41.2144 55.0806 40.9627 55.4514 40.6917 55.7832C40.0915 56.5054 39.1235 56.603 38.1556 55.9979C37.3425 55.51 37.1876 55.1587 37.1489 53.7534C37.1489 53.1093 37.0714 52.2115 37.0134 51.7431C36.8972 50.9624 36.9166 50.9233 37.3812 50.9233C37.9039 50.9233 38.2524 51.4894 37.9813 51.9187C37.749 52.3091 37.9039 54.4365 38.2136 54.9049C38.5621 55.4709 39.3171 55.6466 39.8205 55.2953C40.2851 54.9635 40.5174 53.2655 40.2464 52.1139C39.9947 50.9819 40.1302 50.6891 40.8852 50.7672C41.408 50.8258 41.4854 50.9038 41.4273 51.3137Z" fill="#444EAD"/>
<path id="Vector_32" d="M45.5123 52.8555C45.0477 52.7189 44.6798 52.5432 44.6798 52.4456C44.6798 52.0553 45.2413 52.1138 46.1124 52.5822C46.6351 52.8555 47.061 53.0507 47.0804 53.0311C47.0804 52.9921 47.2934 52.6993 47.545 52.348C47.7773 51.9967 47.9709 51.6454 47.9709 51.5478C47.9709 51.2746 45.9769 50.3377 45.4542 50.3572C45.1832 50.3572 44.7186 50.4548 44.3894 50.5524C43.286 50.8842 42.5697 52.6603 43.1892 53.48C43.5376 53.9485 44.2926 54.2998 45.1638 54.4169C45.6672 54.495 45.9382 54.6316 45.9382 54.8268C45.9382 55.2171 44.7766 55.1586 44.312 54.7487C44.1184 54.573 43.828 54.4364 43.6538 54.4364C43.3634 54.4364 42.5503 55.2952 42.5503 55.6075C42.5503 55.6855 42.8988 55.9783 43.3247 56.271C44.6798 57.1689 47.3514 56.8566 47.6999 55.7441C47.758 55.5294 47.758 55.0024 47.6999 54.534C47.5644 53.6362 47.1966 53.3629 45.5123 52.8555ZM46.6932 55.9002C46.3447 56.2125 45.8995 56.3882 45.4929 56.3882C44.6605 56.3882 43.5183 55.9002 43.5183 55.5489C43.5183 55.1195 44.0797 54.9829 44.5443 55.3147C45.1251 55.7246 45.7252 55.6855 46.1318 55.2171C46.4803 54.8268 46.4803 54.8072 46.0931 54.4169C45.8801 54.2022 45.3381 53.968 44.9121 53.9094C44.2926 53.8314 44.0216 53.6752 43.7312 53.2263C43.286 52.5042 43.3827 52.0357 44.1571 51.3917C44.6605 50.9623 44.8928 50.9037 45.5897 50.9818C46.0544 51.0208 46.5577 51.177 46.7126 51.3136C46.8674 51.4502 47.003 51.7235 47.003 51.9382C47.003 52.2699 46.9255 52.309 46.4803 52.1919C46.1705 52.1138 45.6284 52.0357 45.2606 52.0357C44.7186 51.9967 44.5637 52.0748 44.525 52.3871C44.4862 52.6798 44.6605 52.875 45.1638 53.1287C45.551 53.3044 45.9963 53.4605 46.1512 53.4605C46.6158 53.4605 47.0223 53.968 47.1385 54.7292C47.2353 55.3147 47.1578 55.4903 46.6932 55.9002Z" fill="#444EAD"/>
<path id="Vector_33" d="M46.6929 55.9002C46.3444 56.2125 45.8992 56.3881 45.4926 56.3881C44.6602 56.3881 43.518 55.9002 43.518 55.5489C43.518 55.1195 44.0794 54.9829 44.544 55.3147C45.1248 55.7245 45.7249 55.6855 46.1315 55.2171C46.48 54.8267 46.48 54.8072 46.0928 54.4169C45.8798 54.2022 45.3378 53.9679 44.9118 53.9094C44.2923 53.8313 44.0213 53.6752 43.7309 53.2263C43.2856 52.5041 43.3824 52.0357 44.1568 51.3916C44.6602 50.9622 44.8925 50.9037 45.5894 50.9818C46.0541 51.0208 46.5574 51.1769 46.7123 51.3136C46.8671 51.4502 47.0027 51.7234 47.0027 51.9381C47.0027 52.2699 46.9252 52.309 46.48 52.1919C46.1702 52.1138 45.6281 52.0357 45.2603 52.0357C44.7182 51.9967 44.5634 52.0747 44.5247 52.387C44.4859 52.6798 44.6602 52.875 45.1635 53.1287C45.5507 53.3043 45.996 53.4605 46.1508 53.4605C46.6155 53.4605 47.022 53.9679 47.1382 54.7291C47.235 55.3147 47.1575 55.4903 46.6929 55.9002Z" fill="#444EAD"/>
<path id="Vector_34" d="M18.8927 61.6775C18.3507 61.3847 17.9635 61.5018 17.9635 61.9702C17.9635 62.1849 17.7893 62.2435 17.344 62.2045C16.7051 62.1459 16.7051 62.1849 16.7826 60.0966C16.8019 59.8428 16.9374 59.7062 17.1697 59.7062C17.7312 59.7062 18.1571 59.9209 18.1571 60.1746C18.1571 60.3113 18.4475 60.4088 18.9315 60.3893C19.8801 60.3893 19.9381 60.077 19.1444 58.9645C18.4475 58.0277 18.4862 58.0277 17.344 58.1058C16.647 58.1448 16.2599 58.3009 15.7372 58.7694L15.0596 59.3939V62.8095L15.7759 63.356C16.376 63.8244 16.6277 63.9025 17.5569 63.8634C18.5249 63.8049 18.7185 63.7268 19.2799 63.1218C19.9769 62.3801 19.9381 62.224 18.8927 61.6775ZM18.8347 63.0242C18.1377 63.7659 16.9762 63.7854 16.0856 63.1023C15.4661 62.6338 15.4468 62.5753 15.4468 61.1115C15.4468 59.7452 15.4855 59.5696 15.9888 59.0816C16.4341 58.6327 16.647 58.5547 17.4601 58.5937C18.2539 58.6327 18.4862 58.7303 18.8153 59.1792C19.1444 59.6477 19.1638 59.7452 18.9315 59.9014C18.7379 60.0185 18.5443 59.9795 18.3313 59.7843C18.1184 59.5891 17.7312 59.511 17.2472 59.5501L16.5115 59.6086L16.4534 60.8382C16.4147 61.5799 16.4922 62.1849 16.6277 62.3606C16.8987 62.6924 17.6537 62.7119 18.0022 62.3801C18.2926 62.1069 18.7185 62.0873 19.0863 62.3216C19.2993 62.4387 19.2412 62.5948 18.8347 63.0242Z" fill="#D09918"/>
<path id="Vector_35" d="M18.8347 63.024C18.1377 63.7657 16.9762 63.7852 16.0856 63.1021C15.4661 62.6337 15.4468 62.5751 15.4468 61.1113C15.4468 59.7451 15.4855 59.5694 15.9888 59.0815C16.4341 58.6326 16.6471 58.5545 17.4602 58.5935C18.2539 58.6326 18.4862 58.7302 18.8153 59.1791C19.1444 59.6475 19.1638 59.7451 18.9315 59.9012C18.7379 60.0183 18.5443 59.9793 18.3313 59.7841C18.1184 59.5889 17.7312 59.5109 17.2472 59.5499L16.5115 59.6085L16.4535 60.8381C16.4147 61.5797 16.4922 62.1848 16.6277 62.3604C16.8987 62.6922 17.6538 62.7117 18.0022 62.3799C18.2926 62.1067 18.7185 62.0872 19.0864 62.3214C19.2993 62.4385 19.2412 62.5946 18.8347 63.024Z" fill="#D09918"/>
<path id="Vector_36" d="M31.4766 58.7889C31.4185 58.2814 31.3411 58.2424 30.3537 58.1253C29.773 58.0667 29.2309 58.0472 29.1535 58.0862C28.9212 58.2033 28.9599 59.3158 29.1922 59.3158C29.3083 59.3158 29.3858 59.9404 29.3858 60.7797V62.2435H28.0306V60.9358C28.0306 60.2136 28.1274 59.3549 28.2629 58.984C28.3791 58.6327 28.4565 58.3204 28.3984 58.2619C28.3597 58.2229 27.8177 58.1448 27.2175 58.1057C26.1915 58.0277 26.114 58.0472 25.9979 58.4766C25.9398 58.7303 25.9785 59.1011 26.0947 59.3158C26.1915 59.511 26.2883 60.3503 26.2883 61.17C26.2883 62.6143 26.3076 62.6924 26.9465 63.3365C27.5466 63.9415 27.7015 64 28.7469 64C29.8504 64 29.9085 63.9805 30.528 63.1608C31.1475 62.3606 31.1475 62.302 31.0507 60.9553C30.9539 59.7843 30.9926 59.5305 31.2443 59.4329C31.4379 59.3549 31.5153 59.1402 31.4766 58.7889ZM30.9345 59.1207C30.8184 59.1207 30.7409 59.7843 30.7409 60.7211C30.7409 62.1264 30.6829 62.3801 30.2376 62.9656C29.8117 63.5316 29.6568 63.6097 28.805 63.6097C28.0693 63.6097 27.7402 63.4926 27.2756 63.1022C26.6948 62.6143 26.6755 62.5557 26.6755 60.9748C26.6755 60.038 26.5787 59.2768 26.4625 59.2182C26.056 58.945 26.4431 58.6522 27.2175 58.6327C27.9919 58.6132 28.2436 58.7693 27.837 59.0231C27.5079 59.2378 27.6047 61.9702 27.9532 62.3215C28.321 62.7119 29.2696 62.7314 29.5794 62.3411C29.8117 62.0678 29.7536 59.9209 29.4826 58.9255C29.3664 58.4375 29.3858 58.4375 30.2376 58.4961C30.8377 58.5546 31.1281 58.6718 31.1281 58.8474C31.1281 59.0036 31.0507 59.1207 30.9345 59.1207Z" fill="#D09918"/>
<path id="Vector_37" d="M31.1282 58.8473C31.1282 59.0034 31.0508 59.1205 30.9346 59.1205C30.8185 59.1205 30.741 59.7841 30.741 60.721C30.741 62.1262 30.683 62.38 30.2377 62.9655C29.8118 63.5315 29.6569 63.6096 28.8051 63.6096C28.0694 63.6096 27.7403 63.4925 27.2757 63.1021C26.6949 62.6142 26.6756 62.5556 26.6756 60.9747C26.6756 60.0379 26.5788 59.2767 26.4626 59.2181C26.0561 58.9449 26.4432 58.6521 27.2176 58.6326C27.992 58.6131 28.2437 58.7692 27.8371 59.023C27.508 59.2376 27.6048 61.9701 27.9533 62.3214C28.3211 62.7118 29.2697 62.7313 29.5795 62.3409C29.8118 62.0677 29.7537 59.9208 29.4827 58.9254C29.3665 58.4374 29.3859 58.4374 30.2377 58.496C30.8378 58.5545 31.1282 58.6716 31.1282 58.8473Z" fill="#D09918"/>
<path id="Vector_38" d="M42.9372 62.5361C42.6469 62.3409 42.6856 59.5694 42.9953 59.4523C43.2276 59.3743 43.3051 58.4374 43.1115 58.2618C42.9566 58.1447 40.8464 57.9885 40.7303 58.0861C40.5367 58.2813 40.5948 59.3157 40.8077 59.3157C40.9239 59.3157 41.0013 59.5304 41.0013 59.8037C41.0013 60.194 40.9045 60.2916 40.5367 60.2916C40.285 60.2916 39.9365 60.233 39.7623 60.1745C39.3751 60.0183 39.3557 59.5109 39.7429 59.5109C39.9365 59.5109 40.0333 59.2962 40.0333 58.8278V58.1447H37.5166L37.6328 58.6716C37.7102 58.9839 37.8457 59.2962 37.9232 59.4133C38.2135 59.7061 38.1361 62.3604 37.8457 62.6142C37.6908 62.7313 37.6134 63.0631 37.6715 63.4144C37.7489 64.0194 37.7683 64.0194 38.8524 63.9609C39.9172 63.9023 39.9365 63.9023 39.9946 63.2583C40.0333 62.9069 39.9753 62.6337 39.8591 62.6337C39.7429 62.6337 39.6461 62.458 39.6461 62.2433C39.6461 61.9311 39.7817 61.853 40.3237 61.853C40.7883 61.853 41.0013 61.9506 41.0013 62.1262C41.0013 62.2824 40.9239 62.458 40.8464 62.5166C40.769 62.5751 40.7303 62.9265 40.769 63.2973L40.8464 63.9999H43.1308V63.3363C43.1308 62.9655 43.0534 62.5947 42.9372 62.5361ZM41.9693 63.6096H41.0594L41.1368 62.5361L41.2336 61.4626H40.3624C39.3945 61.4626 39.1622 61.7359 39.4525 62.5556C39.7817 63.3754 39.6849 63.6096 39.0847 63.6096C38.4846 63.6096 38.0393 63.2192 38.1942 62.8094C38.4071 62.2433 38.4071 59.3157 38.2135 59.2572C38.0974 59.2181 38.2135 59.0034 38.4846 58.7692L38.9686 58.3594L39.3557 58.7692C39.6268 59.0425 39.6655 59.1986 39.5106 59.2572C39.3751 59.3157 39.259 59.589 39.259 59.9012C39.259 60.3892 39.3364 60.4477 40.1301 60.5648C40.6141 60.6429 41.0787 60.6429 41.1949 60.5844C41.4466 60.4282 41.4466 59.1205 41.1949 59.1205C41.0981 59.1205 41.0013 58.9254 41.0013 58.7107C41.0013 58.3398 41.0787 58.3008 41.6982 58.3984C42.0854 58.4569 42.5113 58.6131 42.6662 58.7497C42.9179 58.9449 42.8985 59.0229 42.6469 59.3157C42.3177 59.667 42.2209 62.5166 42.5307 62.7118C42.6275 62.7703 42.7437 63.0045 42.8017 63.2192C42.8985 63.5705 42.8017 63.6096 41.9693 63.6096Z" fill="#D09918"/>
<path id="Vector_39" d="M42.8016 63.2193C42.8984 63.5706 42.8016 63.6097 41.9692 63.6097H41.0593L41.1367 62.5362L41.2335 61.4627H40.3624C39.3944 61.4627 39.1621 61.736 39.4525 62.5557C39.7816 63.3754 39.6848 63.6097 39.0846 63.6097C38.4845 63.6097 38.0392 63.2193 38.1941 62.8094C38.407 62.2434 38.407 59.3158 38.2135 59.2572C38.0973 59.2182 38.2135 59.0035 38.4845 58.7693L38.9685 58.3594L39.3557 58.7693C39.6267 59.0425 39.6654 59.1987 39.5105 59.2572C39.375 59.3158 39.2589 59.589 39.2589 59.9013C39.2589 60.3893 39.3363 60.4478 40.13 60.5649C40.614 60.643 41.0787 60.643 41.1948 60.5844C41.4465 60.4283 41.4465 59.1206 41.1948 59.1206C41.098 59.1206 41.0012 58.9254 41.0012 58.7108C41.0012 58.3399 41.0787 58.3009 41.6982 58.3985C42.0853 58.457 42.5113 58.6132 42.6661 58.7498C42.9178 58.945 42.8984 59.023 42.6468 59.3158C42.3177 59.6671 42.2209 62.5167 42.5306 62.7118C42.6274 62.7704 42.7436 63.0046 42.8016 63.2193Z" fill="#D09918"/>
<path id="Vector_40" d="M24.4878 58.7693C23.9264 58.2228 23.7134 58.1448 22.7842 58.1448C21.8549 58.1448 21.642 58.2228 21.158 58.7303C20.6353 59.2768 20.5966 59.4134 20.5966 61.0139C20.5772 62.5753 20.6159 62.7314 21.0999 63.2584C21.5452 63.7463 21.7388 63.8049 22.7455 63.8049C23.7134 63.7853 23.9457 63.7073 24.5072 63.2193C25.1073 62.6533 25.1267 62.5948 25.1267 61.0139C25.1267 59.4329 25.1073 59.3744 24.4878 58.7693ZM24.2555 62.9266C23.849 63.3364 23.5779 63.4145 22.7067 63.4145C21.158 63.4145 20.8289 62.9851 20.887 61.0724C20.9063 59.8038 20.9838 59.5305 21.4097 59.0621C21.8162 58.6327 22.0679 58.5351 22.7842 58.5351C23.5005 58.5351 23.7715 58.6327 24.2168 59.1011C24.6814 59.6086 24.7395 59.8233 24.7395 61.0529C24.7395 62.2825 24.6814 62.4777 24.2555 62.9266Z" fill="#D09918"/>
<path id="Vector_41" d="M24.2169 59.1012C23.7716 58.6327 23.52 58.5352 22.7843 58.5352C22.0486 58.5352 21.8163 58.6327 21.4098 59.0621C20.9839 59.5305 20.9064 59.8038 20.8871 61.0724C20.829 62.9852 21.1581 63.4145 22.7069 63.4145C23.578 63.4145 23.8491 63.3365 24.2556 62.9266C24.6815 62.4777 24.7396 62.263 24.7396 61.0529C24.7396 59.8428 24.6815 59.6086 24.2169 59.1012ZM23.8297 62.0093C23.6942 62.5363 22.9585 62.7705 22.281 62.4582C21.797 62.2435 21.797 62.1654 21.8744 60.9944C21.9325 60.3113 22.0486 59.6477 22.1067 59.5306C22.2616 59.2768 23.1715 59.2378 23.52 59.472C23.791 59.6477 24.0039 61.3457 23.8297 62.0093Z" fill="#D09918"/>
<path id="Vector_42" d="M23.5199 59.4719C23.1714 59.2377 22.2615 59.2768 22.1067 59.5305C22.0486 59.6476 21.9324 60.3112 21.8744 60.9943C21.7969 62.1654 21.7969 62.2434 22.2809 62.4581C22.9585 62.7704 23.6941 62.5362 23.8297 62.0092C24.0039 61.3456 23.7909 59.6476 23.5199 59.4719ZM23.578 62.2434H22.2228V59.7061H23.578V62.2434Z" fill="#D09918"/>
<path id="Vector_43" d="M36.2004 61.7945C35.6583 61.5213 35.6003 61.5408 35.1743 61.9507C34.8065 62.302 34.6129 62.3605 34.2645 62.2239C33.8579 62.0678 33.8192 61.9507 33.8773 60.9357C33.9353 59.8623 33.9547 59.8037 34.4774 59.7452C34.884 59.6866 35.0582 59.7647 35.1163 60.0379C35.1937 60.3307 35.3873 60.4088 35.9874 60.3892C36.7037 60.3892 36.7425 60.3502 36.7425 59.8037C36.7425 59.3158 36.5876 59.1206 35.8713 58.6717C34.5936 57.9105 33.5288 57.9496 32.7157 58.7888C32.1156 59.4134 32.0962 59.4914 32.0962 60.9943V62.5752L32.8706 63.2778C33.5288 63.9024 33.7611 64 34.5548 64C35.3486 63.9805 35.6003 63.8829 36.2198 63.2974C37.0522 62.5167 37.0522 62.2239 36.2004 61.7945ZM35.9294 63.1607C35.6003 63.5121 35.3099 63.6096 34.5936 63.6096C33.7611 63.6096 33.6062 63.5316 33.1416 62.9265C32.7544 62.3996 32.5995 61.9507 32.5221 60.9748C32.4253 59.7647 32.464 59.6476 32.9674 59.1206C33.6643 58.3789 34.6904 58.3399 35.6777 58.9645C36.0455 59.2182 36.3553 59.511 36.3553 59.6281C36.3553 60.0184 35.7358 60.116 35.3873 59.8037C35.0001 59.4524 33.8579 59.4134 33.7417 59.7452C33.703 59.8818 33.6256 60.4283 33.5675 60.9748C33.4901 61.6969 33.5482 62.0092 33.7805 62.2824C34.1677 62.7118 34.8646 62.7314 35.2711 62.341C35.5035 62.1068 35.6583 62.0678 35.9681 62.2434C36.4521 62.4971 36.4521 62.5947 35.9294 63.1607Z" fill="#D09918"/>
<path id="Vector_44" d="M35.929 63.1607C35.5999 63.5121 35.3095 63.6096 34.5932 63.6096C33.7608 63.6096 33.6059 63.5316 33.1413 62.9265C32.7541 62.3996 32.5992 61.9507 32.5218 60.9748C32.425 59.7647 32.4637 59.6476 32.967 59.1206C33.664 58.3789 34.69 58.3399 35.6774 58.9645C36.0452 59.2182 36.355 59.511 36.355 59.6281C36.355 60.0184 35.7354 60.116 35.387 59.8037C34.9998 59.4524 33.8576 59.4134 33.7414 59.7452C33.7027 59.8818 33.6253 60.4283 33.5672 60.9748C33.4898 61.6969 33.5478 62.0092 33.7801 62.2825C34.1673 62.7118 34.8643 62.7314 35.2708 62.341C35.5031 62.1068 35.658 62.0678 35.9678 62.2434C36.4517 62.4971 36.4517 62.5947 35.929 63.1607Z" fill="#D09918"/>
<path id="Vector_45" d="M10.5491 60.0185C10.4717 60.0965 10.4136 60.3503 10.4136 60.5845C10.4136 60.9748 10.5491 61.0334 11.4203 61.1114C11.9817 61.17 12.7754 61.17 13.182 61.1114C13.8402 61.0334 13.9176 60.9748 13.8596 60.5064C13.8015 60.0185 13.7628 59.9989 12.2527 59.9404C11.3815 59.9209 10.6265 59.9404 10.5491 60.0185Z" fill="#444EAD"/>
<path id="Vector_46" d="M44.2342 60.038C44.1567 60.0965 44.0986 60.3503 44.0986 60.604C44.0986 61.131 44.5245 61.2676 46.2863 61.2676C47.6995 61.2676 47.9899 61.0529 47.5833 60.3112C47.4091 59.9404 47.1961 59.9014 45.8603 59.9014C45.0279 59.9014 44.2922 59.9599 44.2342 60.038Z" fill="#444EAD"/>
<path id="Vector_47" d="M21.4675 22.5837C22.0641 22.5837 22.5477 22.0961 22.5477 21.4946C22.5477 20.8931 22.0641 20.4055 21.4675 20.4055C20.8709 20.4055 20.3872 20.8931 20.3872 21.4946C20.3872 22.0961 20.8709 22.5837 21.4675 22.5837Z" fill="#444EAD"/>
<path id="Vector_48" d="M34.8972 22.5837C35.4938 22.5837 35.9774 22.0961 35.9774 21.4946C35.9774 20.8931 35.4938 20.4055 34.8972 20.4055C34.3005 20.4055 33.8169 20.8931 33.8169 21.4946C33.8169 22.0961 34.3005 22.5837 34.8972 22.5837Z" fill="#444EAD"/>
</g>
<defs>
<clipPath id="clip0_1184_7649">
<rect width="57" height="64" fill="white"/>
</clipPath>
</defs>
</svg>
