<svg width="80" height="80" viewBox="0 0 80 80" fill="none" xmlns="http://www.w3.org/2000/svg">
<path d="M40 80C62.0914 80 80 62.0914 80 40C80 17.9086 62.0914 0 40 0C17.9086 0 0 17.9086 0 40C0 62.0914 17.9086 80 40 80Z" fill="url(#paint0_linear_1232_5714)"/>
<path d="M64.3335 54.3335L57.0002 41.6668C58.6668 39.0002 59.3335 35.6668 59.3335 32.6668C59.0002 22.0002 50.6668 13.3335 40.0002 13.3335C29.3335 13.3335 20.6668 22.0002 20.6668 32.3335C20.6668 35.6668 21.3335 38.6668 23.0002 41.3335L15.6668 54.0002C15.0002 55.3335 15.3335 57.0002 16.6668 57.6668C17.0002 58.0002 17.6668 58.0002 18.0002 58.0002H26.0002L30.0002 64.6668C30.0002 65.0002 30.3335 65.0002 30.3335 65.3335C31.0002 66.3335 31.6668 66.6668 32.3335 66.6668H32.6668C33.6668 66.6668 34.3335 66.0002 34.6668 65.3335L40.0002 56.3335L45.3335 65.6668C45.6668 66.3335 46.3335 67.0002 47.3335 67.0002H47.6668C48.3335 67.0002 49.0002 66.6668 49.6668 66.3335C50.0002 66.3335 50.0002 66.0002 50.0002 65.6668L54.0002 59.0002H62.0002C63.0002 59.0002 64.0002 58.3335 64.3335 57.6668C64.6668 56.3335 64.6668 55.3335 64.3335 54.3335ZM32.3335 58.6668L30.0002 54.6668C29.3335 53.6668 28.3335 53.3335 27.6668 53.3335H22.6668L26.6668 46.6668C29.3335 49.3335 32.6668 51.0002 36.3335 51.6668L32.3335 58.6668ZM40.0002 46.3335C32.3335 46.3335 26.3335 40.3335 26.3335 32.6668C26.3335 25.0002 32.3335 18.6668 40.0002 18.6668C47.6668 18.6668 53.6668 24.6668 53.6668 32.3335C53.6668 40.0002 47.6668 46.3335 40.0002 46.3335ZM52.3335 53.3335C51.3335 53.3335 50.3335 54.0002 50.0002 54.6668L47.6668 58.6668L43.6668 51.3335C47.3335 50.6668 50.6668 49.0002 53.3335 46.3335L57.3335 53.0002L52.3335 53.3335Z" fill="white"/>
<defs>
<linearGradient id="paint0_linear_1232_5714" x1="40" y1="0" x2="40" y2="80" gradientUnits="userSpaceOnUse">
<stop stop-color="#F7B733"/>
<stop offset="1" stop-color="#FC4A1A"/>
</linearGradient>
</defs>
</svg>
