<svg width="80" height="80" viewBox="0 0 80 80" fill="none" xmlns="http://www.w3.org/2000/svg">
<g clip-path="url(#clip0_1232_5721)">
<path d="M40 80C62.0914 80 80 62.0914 80 40C80 17.9086 62.0914 0 40 0C17.9086 0 0 17.9086 0 40C0 62.0914 17.9086 80 40 80Z" fill="url(#paint0_linear_1232_5721)"/>
<path d="M67.2501 35.5835C67.0001 33.6668 65.9168 32.0835 64.3334 31.0002C63.5001 30.4168 62.5001 30.0835 61.5834 29.8335C60.8334 23.4168 55.3334 18.3335 48.6668 18.3335H31.3334C24.6668 18.3335 19.1668 23.5002 18.4168 30.0002C17.0001 30.2502 15.6668 31.0002 14.5834 32.0002C13.2501 33.3335 12.5001 35.2502 12.5834 37.1668V48.7502C12.5834 52.2502 15.0001 55.1668 18.3334 55.8335V60.3335C18.3334 61.1668 19.0001 61.7502 19.7501 61.7502C20.5834 61.7502 21.1668 61.0835 21.1668 60.3335V56.0002H58.7501V60.3335C58.7501 61.1668 59.4168 61.7502 60.1668 61.7502C60.9168 61.7502 61.5834 61.0835 61.5834 60.3335V55.8335C64.9168 55.1668 67.3334 52.2502 67.3334 48.6668V37.0002C67.4168 36.6668 67.4168 36.1668 67.2501 35.5835ZM31.3334 21.2502H48.6668C53.8334 21.2502 58.0001 25.0835 58.6668 30.0002C55.1668 30.8335 52.9168 34.0002 53.0001 37.4168V41.5002H27.0001V37.4168C27.1668 33.9168 24.7501 30.7502 21.3334 30.0002C22.0001 25.0835 26.2501 21.2502 31.3334 21.2502ZM64.5834 48.6668C64.5834 51.0835 62.6668 53.0002 60.2501 53.0002H19.7501C17.3334 53.0002 15.4168 51.0835 15.4168 48.6668V37.0835C15.4168 35.9168 15.8334 34.7502 16.6668 34.0002C17.4168 33.1668 18.4168 32.7502 19.4168 32.6668C19.5834 32.6668 19.6668 32.7502 19.7501 32.7502C19.8334 32.7502 20.0001 32.7502 20.1668 32.6668H20.4168C22.5834 33.0835 24.1668 35.0835 24.0001 37.2502V42.8335C24.0001 43.6668 24.6668 44.2502 25.4168 44.2502H54.3334C55.1668 44.2502 55.7501 43.5835 55.7501 42.8335V37.2502C55.6668 35.0835 57.1668 33.1668 59.3334 32.6668H59.5834C59.7501 32.7502 59.9168 32.7502 60.0834 32.7502C60.3334 32.7502 60.4168 32.6668 60.5834 32.6668C61.2501 32.7502 61.9168 33.0002 62.5001 33.4168C63.4168 34.0835 64.0001 35.0835 64.2501 36.2502C64.2501 36.3335 64.2501 36.5002 64.3334 36.5002C64.4168 36.6668 64.4168 36.8335 64.4168 37.0835V48.6668H64.5834Z" fill="white"/>
</g>
<defs>
<linearGradient id="paint0_linear_1232_5721" x1="40" y1="80" x2="40" y2="0" gradientUnits="userSpaceOnUse">
<stop stop-color="#FC4A1A"/>
<stop offset="1" stop-color="#FDB13A"/>
</linearGradient>
<clipPath id="clip0_1232_5721">
<rect width="80" height="80" fill="white"/>
</clipPath>
</defs>
</svg>
