<svg width="80" height="80" viewBox="0 0 80 80" fill="none" xmlns="http://www.w3.org/2000/svg">
<path d="M40.0004 35.8749C37.766 35.9218 35.9848 37.7656 36.0317 39.9843C36.0785 42.2187 37.9223 43.9999 40.141 43.9531C42.3754 43.9062 44.1567 42.0624 44.1098 39.8437C44.0942 38.7968 43.6723 37.7968 42.9223 37.0624C42.1723 36.2812 41.1098 35.8593 40.0004 35.8749Z" fill="url(#paint0_linear_1232_5698)"/>
<path d="M76.8439 24.4064C72.7971 14.8283 65.1721 7.2033 55.5939 3.15642C50.7346 1.04705 45.5314 0.000172148 40.0002 0.000172148C34.6721 -0.0310778 29.3908 1.04705 24.5002 3.15642C19.7502 5.17205 15.422 8.0783 11.7502 11.7033C8.09392 15.3439 5.17205 19.6564 3.15642 24.4064C1.06267 29.2658 0.0157971 34.4689 0.0157971 40.0002C-0.0154529 45.3283 1.06267 50.6095 3.17205 55.5002C7.25017 65.1095 14.9064 72.7658 24.5158 76.8439C29.4064 78.9533 34.6877 80.0158 40.0158 80.0002C45.5471 80.0002 50.7502 78.9533 55.6096 76.8439C60.3596 74.8283 64.6721 71.9064 68.3127 68.2502C71.9377 64.5783 74.8439 60.2502 76.8596 55.5002C78.9689 50.6095 80.0314 45.3283 80.0002 40.0002C79.9846 34.4689 78.9377 29.2658 76.8439 24.4064ZM59.0627 24.1877L47.5002 47.6095L24.0939 59.1564C22.0158 60.1877 19.8127 57.9845 20.8439 55.9064L32.3908 32.4845L55.8127 20.9377C57.8908 19.9064 60.0939 22.1095 59.0627 24.1877Z" fill="url(#paint1_linear_1232_5698)"/>
<defs>
<linearGradient id="paint0_linear_1232_5698" x1="40.081" y1="-0.188496" x2="40.081" y2="78.7962" gradientUnits="userSpaceOnUse">
<stop stop-color="#F7B733"/>
<stop offset="1" stop-color="#FC4A1A"/>
</linearGradient>
<linearGradient id="paint1_linear_1232_5698" x1="40.0002" y1="-0.188265" x2="40.0002" y2="78.7964" gradientUnits="userSpaceOnUse">
<stop stop-color="#FC4A1A"/>
<stop offset="1" stop-color="#F7B733"/>
</linearGradient>
</defs>
</svg>
