<svg width="80" height="80" viewBox="0 0 80 80" fill="none" xmlns="http://www.w3.org/2000/svg">
<g clip-path="url(#clip0_1232_5705)">
<path d="M79.5302 24.5298C79.3118 24.2392 79.0288 24.0033 78.7036 23.8408C78.3784 23.6783 78.0198 23.5938 77.6562 23.5938H60.8973C59.7781 16.9514 53.9869 11.875 47.0312 11.875C40.0756 11.875 34.2844 16.9514 33.1652 23.5938H18.5972L15.5347 2.01453C15.4554 1.45557 15.177 0.944018 14.7507 0.57391C14.3244 0.203801 13.7788 1.05807e-05 13.2142 0L2.34375 0C1.04937 0 0 1.04937 0 2.34375C0 3.63812 1.04937 4.6875 2.34375 4.6875H11.1797L14.242 26.2663V26.2669L17.78 51.1886C18.1644 53.8723 19.4675 56.3398 21.4672 58.1705C19.9041 59.4611 18.9062 61.4131 18.9062 63.5938C18.9062 66.8317 21.107 69.5639 24.0908 70.3772C23.7621 71.2017 23.5934 72.0812 23.5938 72.9688C23.5938 76.8458 26.748 80 30.625 80C34.502 80 37.6562 76.8458 37.6562 72.9688C37.6566 72.1702 37.5202 71.3775 37.2531 70.625H56.8094C56.5423 71.3775 56.4059 72.1702 56.4062 72.9688C56.4062 76.8458 59.5605 80 63.4375 80C67.3145 80 70.4688 76.8458 70.4688 72.9688C70.4688 69.0917 67.3145 65.9375 63.4375 65.9375H25.9375C24.6452 65.9375 23.5938 64.8861 23.5938 63.5938C23.5938 62.3014 24.6452 61.25 25.9375 61.25H61.0534C66.258 61.25 70.8914 57.755 72.3187 52.7595L79.9073 26.5903C80.0086 26.2411 80.0272 25.8732 79.9617 25.5156C79.8962 25.158 79.7485 24.8205 79.5302 24.5298Z" fill="url(#paint0_linear_1232_5705)"/>
<path d="M47.0312 9.53125C37.9848 9.53125 30.625 16.8911 30.625 25.9375C30.625 34.9839 37.9848 42.3438 47.0312 42.3438C56.0777 42.3438 63.4375 34.9839 63.4375 25.9375C63.4375 16.8911 56.0777 9.53125 47.0312 9.53125ZM53.3759 25.2511L46.3447 32.2823C45.8872 32.74 45.2873 32.9688 44.6875 32.9688C44.0877 32.9688 43.4878 32.74 43.0303 32.2822L40.6866 29.9384C39.7713 29.0231 39.7713 27.5392 40.6866 26.6239C41.6017 25.7086 43.0858 25.7086 44.0011 26.6239L44.6877 27.3103L50.0617 21.9364C50.9769 21.0211 52.4609 21.0211 53.3763 21.9364C54.2914 22.8519 54.2914 24.3358 53.3759 25.2511Z" fill="#FEE5BD"/>
</g>
<defs>
<linearGradient id="paint0_linear_1232_5705" x1="40" y1="80" x2="40" y2="0" gradientUnits="userSpaceOnUse">
<stop stop-color="#FC4A1A"/>
<stop offset="1" stop-color="#FDB13A"/>
</linearGradient>
<clipPath id="clip0_1232_5705">
<rect width="80" height="80" fill="white"/>
</clipPath>
</defs>
</svg>
