<svg width="72" height="49" viewBox="0 0 72 49" fill="none" xmlns="http://www.w3.org/2000/svg">
<path d="M18.8431 16.2558C18.199 17.0179 17.1685 17.6191 16.138 17.5332C16.0092 16.5027 16.5137 15.4077 17.1041 14.7315C17.7482 13.9478 18.8753 13.3896 19.7878 13.3467C19.8951 14.4201 19.4765 15.4721 18.8431 16.2558ZM19.777 17.7372C18.2849 17.6513 17.0075 18.5852 16.299 18.5852C15.5798 18.5852 14.4956 17.7801 13.3148 17.8016C11.7797 17.823 10.352 18.6926 9.56836 20.0773C7.95816 22.8469 9.14971 26.9475 10.7062 29.2018C11.4684 30.3182 12.3808 31.542 13.5831 31.499C14.721 31.4561 15.1719 30.7583 16.5459 30.7583C17.9307 30.7583 18.3279 31.499 19.5301 31.4776C20.7754 31.4561 21.559 30.3612 22.3212 29.2448C23.1907 27.9781 23.5449 26.7436 23.5664 26.6792C23.5449 26.6577 21.1618 25.7452 21.1404 22.9972C21.1189 20.6999 23.0189 19.605 23.1048 19.5406C22.0313 17.9519 20.3567 17.7801 19.777 17.7372ZM28.397 14.6241V31.3595H30.9948V25.6379H34.5909C37.8757 25.6379 40.1837 23.3836 40.1837 20.1203C40.1837 16.8569 37.9187 14.6241 34.6768 14.6241H28.397ZM30.9948 16.814H33.9898C36.2441 16.814 37.5322 18.0163 37.5322 20.131C37.5322 22.2457 36.2441 23.4588 33.979 23.4588H30.9948V16.814ZM44.9284 31.4883C46.5601 31.4883 48.0737 30.6617 48.7607 29.3521H48.8144V31.3595H51.2189V23.0294C51.2189 20.6141 49.2867 19.0575 46.3132 19.0575C43.5544 19.0575 41.5148 20.6355 41.4396 22.8039H43.7798C43.973 21.7734 44.9284 21.0971 46.2381 21.0971C47.8268 21.0971 48.7178 21.8378 48.7178 23.2011V24.1243L45.4759 24.3175C42.4594 24.5 40.8278 25.7345 40.8278 27.8815C40.8278 30.0499 42.5131 31.4883 44.9284 31.4883ZM45.6262 29.5024C44.2414 29.5024 43.3612 28.8368 43.3612 27.817C43.3612 26.765 44.2092 26.1532 45.8301 26.0566L48.7178 25.8741V26.8187C48.7178 28.386 47.3867 29.5024 45.6262 29.5024ZM54.4286 35.911C56.962 35.911 58.1536 34.9449 59.1948 32.0143L63.7571 19.2186H61.1163L58.0569 29.1052H58.0033L54.9439 19.2186H52.228L56.6292 31.4024L56.3931 32.1431C55.9959 33.3991 55.3518 33.8821 54.2032 33.8821C53.9992 33.8821 53.6021 33.8607 53.441 33.8392V35.8466C53.5913 35.8895 54.2354 35.911 54.4286 35.911Z" fill="#101010"/>
</svg>
