<svg width="32" height="22" viewBox="0 0 32 22" fill="none" xmlns="http://www.w3.org/2000/svg">
<path d="M31.1762 0.630859H0.823796C0.368272 0.630859 0 0.999698 0 1.45466V20.5453C0 21.0003 0.368272 21.3691 0.823796 21.3691H31.1762C31.6317 21.3691 32 21.0003 32 20.5453V1.45466C32 0.999698 31.6317 0.630859 31.1762 0.630859ZM29.1269 15.6898C29.1045 15.7316 29.0704 15.766 29.0289 15.7889C28.9886 15.8116 28.9431 15.8235 28.8969 15.8235C28.8506 15.8235 28.8052 15.8116 28.7649 15.7889C28.7242 15.7656 28.6904 15.7319 28.6669 15.6913C28.6434 15.6507 28.6311 15.6046 28.6313 15.5577C28.6314 15.5108 28.6439 15.4648 28.6676 15.4243C28.6912 15.3838 28.7252 15.3503 28.766 15.3272C28.8062 15.3053 28.8511 15.2936 28.8969 15.2932C28.9416 15.2932 28.9847 15.3051 29.0266 15.3272C29.0687 15.3495 29.1032 15.3838 29.1258 15.4258C29.1485 15.466 29.1606 15.5114 29.1608 15.5576C29.161 15.6039 29.1493 15.6494 29.1269 15.6898ZM29.7207 11.0003C29.7218 15.5357 26.047 19.2139 21.511 19.215C19.473 19.2185 17.5071 18.461 15.9983 17.0909C14.4911 18.4586 12.5281 19.2151 10.4929 19.2127C5.95977 19.2127 2.28045 15.534 2.28045 11.0003C2.28045 6.48468 5.93088 2.81669 10.4402 2.78723H10.4929C12.6108 2.78723 14.5416 3.59063 15.9989 4.90905C17.5068 3.54051 19.4707 2.78336 21.5071 2.78553C26.0431 2.78383 29.7207 6.46032 29.7218 10.9963C29.7207 10.9974 29.7207 10.998 29.7207 11.0003Z" fill="white"/>
</svg>
