<svg width="32" height="32" viewBox="0 0 32 32" fill="none" xmlns="http://www.w3.org/2000/svg">
<path d="M6.86732 14.0851C6.73757 14.0001 6.54437 13.957 6.29055 13.957L6.07355 13.9582C6.00075 13.9601 5.93055 13.9857 5.87361 14.0311C5.81666 14.0765 5.77606 14.1392 5.75797 14.2097L5.55797 15.0709C5.52681 15.2103 5.61576 15.3242 5.75967 15.3242H5.92171C6.28148 15.3242 6.56024 15.2511 6.76024 15.1038C6.96024 14.9576 7.06279 14.7497 7.05825 14.4805C7.05939 14.3026 6.99537 14.1695 6.86732 14.0851ZM10.4084 16.0698C10.3693 16.0709 10.0696 16.1049 9.91774 16.1236C9.74777 16.148 9.60046 16.182 9.48092 16.2222L9.1999 16.4137C9.13418 16.4964 9.10301 16.6018 9.10301 16.7372L9.23106 16.9854C9.31774 17.0341 9.44579 17.0579 9.60896 17.0579C9.71661 17.0579 9.83333 17.0318 9.95571 16.982L10.2163 16.8477L10.3194 16.7106C10.3602 16.5508 10.4447 16.1956 10.4543 16.1514L10.4084 16.0698Z" fill="white"/>
<path d="M31.1762 5.63086H0.823796C0.368272 5.63086 0 5.9997 0 6.45466V25.5447C0 25.9997 0.368272 26.3691 0.823796 26.3691H31.1762C31.6317 26.3691 32 26.0003 32 25.5453V6.45466C32 5.9997 31.6317 5.63086 31.1762 5.63086ZM7.63966 15.6909C7.18867 16.0229 6.56091 16.1884 5.74958 16.1895H5.56034C5.48735 16.1917 5.417 16.2173 5.35973 16.2626C5.30247 16.3079 5.26136 16.3705 5.24249 16.4411L5.01473 17.4258C4.99588 17.4965 4.95473 17.5593 4.89737 17.6048C4.84001 17.6504 4.76951 17.6762 4.69632 17.6785H4.03343C3.88952 17.6785 3.79943 17.5629 3.83343 17.4258L4.76544 13.3674C4.78525 13.297 4.82673 13.2347 4.88399 13.1892C4.94125 13.1437 5.01138 13.1175 5.08442 13.1141L6.46912 13.1136C6.76827 13.1164 7.0272 13.1345 7.25156 13.1753C7.47252 13.2173 7.66516 13.2875 7.82833 13.3872C7.9847 13.4858 8.11105 13.6178 8.19037 13.7776C8.27875 13.9374 8.31785 14.1374 8.31785 14.3753C8.31785 14.9192 8.09405 15.3589 7.63966 15.6909ZM11.7541 15.1731L11.7292 15.3436L11.2453 17.4354C11.2274 17.5001 11.1908 17.5582 11.1401 17.6023C11.0895 17.6464 11.0269 17.6747 10.9603 17.6835L10.9513 17.6869H10.3348L10.3326 17.6847C10.2062 17.6728 10.128 17.5657 10.1552 17.4365V17.4354L10.1564 17.4314L10.1813 17.3249L10.1779 17.3209L9.92805 17.4858L9.65609 17.6377L9.33541 17.7476C9.19848 17.7759 9.05878 17.7887 8.91898 17.7855C8.63626 17.7855 8.39943 17.7079 8.2204 17.5476C8.13271 17.4684 8.0632 17.3712 8.01664 17.2627C7.97009 17.1541 7.9476 17.0368 7.95071 16.9187C7.95071 16.6467 8.0136 16.4167 8.13994 16.2252C8.27082 16.0348 8.45779 15.8864 8.71048 15.7753C8.97821 15.6583 9.26137 15.5805 9.55128 15.5442C9.87573 15.4946 10.2022 15.4592 10.5297 15.4382L10.6249 15.3793L10.6368 15.2858C10.6368 15.1419 10.57 15.0428 10.4368 14.9844C10.302 14.9277 10.0992 14.8994 9.83399 14.8994C9.65382 14.8971 9.4272 14.934 9.21247 14.9827C8.98754 15.0337 8.92578 15.0671 8.81586 15.1C8.76487 15.1175 8.64193 15.126 8.68782 14.913L8.76884 14.5793C8.76884 14.5793 8.8085 14.3272 9.06062 14.2722C9.18244 14.245 9.2017 14.2399 9.40057 14.2093C9.66969 14.168 9.93598 14.147 10.2028 14.147C10.7428 14.147 11.1382 14.2173 11.3881 14.3583C11.6391 14.4988 11.7671 14.7187 11.766 15.0139L11.7541 15.1731ZM12.8198 19.2943L12.1331 19.2954C11.9904 19.2954 11.9433 19.1821 12.0306 19.0428L12.6181 18.0184C12.6181 18.0184 12.6652 17.96 12.6232 17.6258C12.5326 17.0218 12.0816 14.4541 12.0816 14.4541C12.0487 14.3153 12.1371 14.2014 12.2799 14.2014L12.8742 14.2003C13.0561 14.2003 13.2023 14.3198 13.2351 14.4603L13.5309 16.2411L13.6408 16.2422C13.7331 16.0785 14.6827 14.449 14.6827 14.449C14.7734 14.3119 14.9569 14.1957 15.0997 14.1957C15.0997 14.1957 15.7382 14.1974 15.8952 14.1957C16.1309 14.1923 15.8771 14.5742 15.8771 14.5742L13.2346 19.0428C13.1496 19.1821 12.9615 19.2943 12.8198 19.2943ZM19.685 15.7085C19.2323 16.0388 18.6017 16.2059 17.7904 16.2059H17.6011C17.5282 16.2084 17.458 16.234 17.4008 16.2792C17.3435 16.3243 17.3021 16.3866 17.2827 16.4569L17.0584 17.4433C17.0386 17.5133 16.9971 17.5751 16.9398 17.6199C16.8826 17.6647 16.8126 17.6902 16.7399 17.6926L16.0754 17.6943C15.9343 17.6949 15.8414 17.5804 15.8754 17.4428L16.8079 13.3821C16.8277 13.3121 16.869 13.2501 16.9259 13.2049C16.9828 13.1596 17.0526 13.1335 17.1252 13.13L18.5116 13.1289C18.8091 13.13 19.0708 13.151 19.2907 13.1901C19.4947 13.2234 19.6906 13.2951 19.868 13.4014C20.0261 13.5028 20.1501 13.6326 20.2329 13.7935C20.3178 13.9521 20.3592 14.1527 20.3603 14.3906C20.3603 14.934 20.1331 15.3725 19.685 15.7085ZM23.7972 15.1759L23.7728 15.3476L23.2878 17.4377C23.2703 17.5024 23.2342 17.5605 23.184 17.6048C23.1337 17.6491 23.0715 17.6777 23.0051 17.6869L22.996 17.6903H22.3796L22.3785 17.6869C22.3491 17.6858 22.3203 17.6779 22.2945 17.6639C22.2686 17.6499 22.2463 17.6302 22.2292 17.6062C22.2122 17.5823 22.2008 17.5547 22.196 17.5257C22.1913 17.4967 22.1932 17.4669 22.2017 17.4388L22.2006 17.4371L22.2034 17.4348L22.2255 17.3283L22.2215 17.3232L21.9734 17.4903L21.6997 17.6416L21.3796 17.7498C21.281 17.7753 21.1416 17.7861 20.9643 17.7889C20.681 17.7889 20.4465 17.7085 20.2663 17.5493C20.1779 17.4705 20.1078 17.3733 20.061 17.2646C20.0141 17.1558 19.9915 17.0382 19.9949 16.9198C19.9949 16.6496 20.0578 16.4184 20.1847 16.228C20.3144 16.0377 20.5042 15.8898 20.7547 15.7776C20.9915 15.67 21.2759 15.5918 21.5972 15.5464C21.9217 15.4965 22.2484 15.4613 22.5762 15.4411L22.6714 15.381L22.6816 15.2875C22.6849 15.2225 22.6672 15.1581 22.6311 15.1039C22.5949 15.0497 22.5423 15.0086 22.481 14.9867C22.3462 14.9294 22.1433 14.9011 21.8793 14.9011C21.698 14.9 21.4708 14.9362 21.2567 14.9844C21.0329 15.0365 20.9722 15.0688 20.8629 15.1017C20.8074 15.1181 20.6878 15.1277 20.7331 14.9147L20.8142 14.5816C20.8142 14.5816 20.8521 14.3289 21.1054 14.2745C21.2283 14.2479 21.2482 14.2416 21.4465 14.2127C21.7118 14.1701 21.98 14.1486 22.2487 14.1487C22.7864 14.1487 23.1813 14.2201 23.4334 14.3612C23.6861 14.5017 23.8125 14.7204 23.8125 15.0156L23.7972 15.1759ZM25.9218 13.4156L25.0334 17.4388L25.0023 17.4864C24.9496 17.5997 24.8374 17.6915 24.7156 17.6915H24.0991L24.0878 17.6773C23.9705 17.6592 23.8941 17.5646 23.9218 17.4411L23.9207 17.4382L23.9473 17.3221L24.7779 13.5476L24.8074 13.4161L24.8408 13.3646C24.8946 13.2535 25.0045 13.1634 25.1263 13.1634H25.7195C25.864 13.1634 25.9507 13.2762 25.9201 13.4144L25.9218 13.4156ZM27.0992 12.9804H26.8771V13.2756L26.8788 13.3549L26.8941 13.4082L26.9292 13.4422L26.9972 13.453L27.0527 13.445L27.0941 13.4326H27.0992V13.5294L27.0329 13.5425L26.97 13.5476L26.8193 13.4937L26.7677 13.3238V12.9804H26.6929V12.8886H26.7677V12.7045H26.8771V12.8886H27.0992V12.9804ZM28.1728 13.1158V13.5334H28.0657V13.1651L28.0589 13.0864L28.0448 13.0241L28.0074 12.9872L27.9354 12.9742L27.8453 12.9974L27.753 13.0558L27.7547 13.0875L27.7558 13.1215V13.5345H27.6482V13.1663L27.6436 13.0864L27.6283 13.0246L27.5921 12.9878L27.519 12.9748L27.43 12.9969L27.3399 13.053V13.5345H27.2334V12.8892H27.3399V12.9612L27.4431 12.8954L27.5496 12.8717L27.6618 12.8983L27.7309 12.9753L27.8499 12.8954L27.966 12.8717L28.1229 12.9357L28.1739 13.1158H28.1728Z" fill="white"/>
<path d="M22.4521 16.0731C22.413 16.0725 22.1144 16.1077 21.9648 16.1269C21.8165 16.1461 21.6702 16.1791 21.528 16.2255C21.4184 16.2638 21.3207 16.3298 21.2441 16.417C21.1807 16.4997 21.1489 16.6051 21.1489 16.7411L21.2787 16.9887C21.3614 17.038 21.4878 17.0618 21.656 17.0618C21.762 17.0618 21.8787 17.0357 22.0005 16.9864L22.2594 16.8521L22.3659 16.715C22.4056 16.5536 22.4917 16.1994 22.4985 16.1552L22.4521 16.0731ZM18.9076 14.1003C18.7767 14.0147 18.5863 13.9728 18.332 13.9717L18.1161 13.9728C18.0431 13.9751 17.9728 14.0009 17.9157 14.0463C17.8585 14.0917 17.8175 14.1544 17.7988 14.2249L17.5982 15.0856C17.5659 15.2238 17.6583 15.3394 17.8016 15.3383H17.9665C18.3252 15.3383 18.6033 15.2646 18.8039 15.1207C19.0022 14.9728 19.1031 14.7666 19.1019 14.4952C19.0985 14.3184 19.0368 14.1853 18.9076 14.1003Z" fill="white"/>
</svg>
