<svg width="57" height="11" viewBox="0 0 57 11" fill="none" xmlns="http://www.w3.org/2000/svg">
<path d="M51.0031 8.23098C50.3783 8.23098 50.1123 7.64533 50.1123 6.69899C50.1127 5.45157 50.3968 3.01317 51.7811 3.01317C52.4062 3.01317 52.6149 3.58029 52.6149 4.41211C52.6149 5.65941 52.3115 8.23098 51.0031 8.23098ZM52.1791 0.328371C48.2542 0.328371 46.5481 3.33509 46.5481 6.54841C46.5481 8.98692 47.5339 10.9343 50.5108 10.9343C54.5304 10.9343 56.218 7.64521 56.218 4.46916C56.218 2.068 55.1371 0.328371 52.1791 0.328371ZM43.2073 0.328371C41.8997 0.328371 40.9511 0.726164 39.9466 1.44383C39.5857 0.800996 38.8656 0.328371 37.7657 0.328773C36.4955 0.328773 35.548 0.839796 34.8465 1.34958L34.7518 0.49894H31.7364L30.1252 10.6885H33.6511L34.7702 3.54301C35.0735 3.39138 35.528 3.18362 35.9833 3.18362C36.3241 3.18362 36.6088 3.29697 36.6088 3.80791C36.6088 3.93968 36.5712 4.14741 36.5527 4.31769L35.5479 10.6884H39.0553L40.1735 3.54293C40.4965 3.37257 40.9323 3.18354 41.3676 3.18354C41.7099 3.18354 41.9944 3.29685 41.9944 3.80783C41.9944 3.9396 41.9554 4.14733 41.937 4.31761L40.9323 10.6882H44.4403L45.5201 3.88243C45.5775 3.52412 45.6348 2.97582 45.6348 2.59776C45.6348 1.23606 45.0085 0.328371 43.2073 0.328371ZM27.1253 0.328572C25.7798 0.328572 24.8315 0.839596 24.1113 1.31214L24.0726 0.49882H21.02L19.4086 10.6884H22.9357L24.0539 3.54293C24.3573 3.39126 24.8127 3.18354 25.267 3.18354C25.6091 3.18354 25.8936 3.29677 25.8936 3.75058C25.8936 3.9396 25.8362 4.28026 25.8174 4.44946L24.8315 10.6882H28.3388L29.4197 3.88243C29.4769 3.52412 29.5345 2.97582 29.5345 2.59776C29.5345 1.23606 28.9079 0.328371 27.1253 0.328572ZM13.9454 4.61963C14.0404 3.4856 14.9115 2.69226 15.5754 2.69226C15.9549 2.69226 16.2769 2.91864 16.2769 3.37245C16.2769 4.31749 14.6082 4.61963 13.9454 4.61963ZM15.9173 0.328371C12.1632 0.328331 10.3423 3.58029 10.3423 6.6429C10.3423 9.00582 11.4617 10.896 14.5894 10.896C15.8224 10.896 17.0927 10.6312 17.9079 10.2343L18.3436 7.28581C17.1868 7.87167 16.2967 8.09805 15.367 8.09805C14.5133 8.09805 13.8694 7.64529 13.8694 6.49131C15.8037 6.47261 19.14 5.67911 19.1398 3.08893C19.1398 1.48223 17.9841 0.328371 15.9173 0.328371ZM5.99704 0.952626C6.20552 1.38781 6.33893 1.91633 6.33893 2.69226C6.33889 4.10985 5.3331 6.18909 4.51809 7.51215L3.64587 0.517357L0.0439453 0.858133L1.69366 10.6883H5.80729C7.60831 8.32547 9.82739 4.96053 9.82743 2.37022C9.82743 1.5581 9.65642 0.91519 9.27716 0.291016L5.99704 0.952626Z" fill="#008CFF"/>
</svg>
