<svg width="32" height="24" viewBox="0 0 32 24" fill="none" xmlns="http://www.w3.org/2000/svg">
<g clip-path="url(#clip0_1232_6607)">
<path d="M32 3.59118V3.37021C32 1.7987 30.7218 0.520508 29.1505 0.520508H2.84971C1.27819 0.520508 0 1.7987 0 3.37021V3.59118H32ZM26.3553 11.3938L25.8558 12.2876H26.5693L26.3553 11.3938Z" fill="white"/>
<path d="M9.81551 19.8797C9.29075 19.8797 8.86551 19.4545 8.86551 18.9301C8.86551 18.4053 9.29075 17.9801 9.81551 17.9801H32V5.49121H0V17.9801H6.35345C6.87805 17.9801 7.30346 18.4053 7.30346 18.9301C7.30346 19.4545 6.87805 19.8798 6.35345 19.8798H0V20.1009C0 21.6723 1.27819 22.9507 2.84971 22.9507H29.1505C30.7218 22.9507 32 21.6723 32 20.1009V19.8798L9.81551 19.8797ZM22.6567 14.1175L23.4006 12.7862C23.4015 12.785 23.4022 12.7838 23.4027 12.7824L25.884 8.34417C25.9772 8.17718 26.1186 8.04225 26.2898 7.95705C26.4609 7.87186 26.6539 7.84038 26.8432 7.86675C27.0326 7.89293 27.2096 7.97563 27.3512 8.10404C27.4928 8.23246 27.5924 8.40062 27.6368 8.58652L29.0188 14.3597C29.1409 14.8699 28.8262 15.3828 28.3158 15.5049C28.2433 15.5222 28.1689 15.531 28.0944 15.531C27.6647 15.531 27.2754 15.2379 27.1712 14.802L27.0238 14.1876H24.7939L24.3149 15.0443C24.0589 15.5022 23.4803 15.666 23.0223 15.41C22.5644 15.1541 22.4006 14.5752 22.6567 14.1175ZM15.9194 13.7138H19.4746C19.5793 13.7141 19.6813 13.681 19.7659 13.6193C19.8505 13.5576 19.9132 13.4705 19.9448 13.3707C20.0111 13.1629 19.9284 13.005 19.8733 12.9293C19.8182 12.8539 19.6929 12.7269 19.4746 12.7269H17.8962C17.1235 12.7269 16.4189 12.3689 15.9635 11.745C15.5078 11.121 15.3813 10.341 15.6166 9.60503C15.9348 8.60952 16.8509 7.94062 17.8962 7.94062H21.4514C21.9757 7.94062 22.4011 8.36583 22.4011 8.89039C22.4011 9.41503 21.9757 9.84028 21.4514 9.84028H17.8962C17.7916 9.84001 17.6895 9.87316 17.605 9.93489C17.5204 9.99662 17.4578 10.0837 17.4262 10.1835C17.3597 10.3912 17.4425 10.5492 17.4976 10.6246C17.553 10.7003 17.6779 10.8272 17.8962 10.8272H19.4746C20.2474 10.8272 20.9519 11.1848 21.4074 11.8089C21.863 12.4329 21.9895 13.213 21.7544 13.949C21.4361 14.9447 20.5199 15.6136 19.4746 15.6136H15.9194C15.3952 15.6136 14.9696 15.1884 14.9696 14.6636C14.9696 14.139 15.3952 13.7138 15.9194 13.7138ZM11.3262 14.5138L12.2491 8.74061C12.3317 8.22239 12.8188 7.8696 13.3365 7.9525C13.8549 8.03524 14.2074 8.52228 14.1249 9.04042L13.2022 14.8137C13.1274 15.2809 12.7238 15.6136 12.2654 15.6136C12.2157 15.6136 12.1651 15.6097 12.1143 15.6017C11.5962 15.5188 11.2434 15.0318 11.3262 14.5138ZM6.8431 15.6136C6.79985 15.6136 6.75643 15.6106 6.7127 15.6045C6.52333 15.5784 6.34626 15.4957 6.20465 15.3673C6.06303 15.2389 5.96347 15.0707 5.91898 14.8848L4.71128 9.84024H3.905C3.38056 9.84024 2.95532 9.41503 2.95532 8.89043C2.95532 8.36583 3.38056 7.94059 3.905 7.94059H5.46066C5.67415 7.94059 5.88141 8.0125 6.04901 8.14473C6.21662 8.27696 6.33479 8.4618 6.38447 8.66942L7.20014 12.0773L9.24076 8.42695C9.49688 7.96911 10.0754 7.80516 10.5334 8.06128C10.9912 8.3174 11.155 8.89577 10.8991 9.35392L7.67177 15.1271C7.58939 15.2746 7.46917 15.3974 7.32351 15.4829C7.17785 15.5684 7.01201 15.6135 6.8431 15.6136Z" fill="white"/>
</g>
<defs>
<clipPath id="clip0_1232_6607">
<rect width="32" height="23" fill="white" transform="translate(0 0.5)"/>
</clipPath>
</defs>
</svg>
